<svg xmlns="http://www.w3.org/2000/svg" xmlns:xlink="http://www.w3.org/1999/xlink" viewBox="0 0 360 360"><defs><style>.cls-1{fill:url(#radial-gradient);}.cls-2{fill:#fff;}.cls-3{fill:none;}</style><radialGradient id="radial-gradient" cx="180" cy="179.5" r="180" gradientUnits="userSpaceOnUse"><stop offset="0" stop-color="#132430"/><stop offset="1" stop-color="#1f3646"/></radialGradient></defs><g id="Layer_4" data-name="Layer 4"><path class="cls-1" d="M180-.5a180,180,0,1,0,180,180A180,180,0,0,0,180-.5Zm0,337.26A157.26,157.26,0,1,1,337.26,179.5,157.26,157.26,0,0,1,180,336.76Z"/></g><g id="Circle"><path class="cls-2" d="M181.6,20a.39.39,0,0,1-.4-.41L181.51.76a.37.37,0,0,1,.12-.29.38.38,0,0,1,.29-.11h.7a.4.4,0,0,1,.29.12.44.44,0,0,1,.11.29l-.31,18.81a.37.37,0,0,1-.12.29.38.38,0,0,1-.29.12Z"/><path class="cls-2" d="M198.69,17.29a.38.38,0,0,1-.28-.16.42.42,0,0,1-.07-.3l1.6-11.5a.39.39,0,0,1,.15-.29A.36.36,0,0,1,200.4,5l4.83.67a4.71,4.71,0,0,1,2.09.73,2.8,2.8,0,0,1,1.07,1.34,3.4,3.4,0,0,1,.17,1.72,2.93,2.93,0,0,1-.41,1.2,2.65,2.65,0,0,1-.71.77,3.06,3.06,0,0,1-.75.4,3.4,3.4,0,0,1,1.07,1.27A3.08,3.08,0,0,1,208,15a3.78,3.78,0,0,1-.68,1.72,3.26,3.26,0,0,1-1.5,1.11,4.41,4.41,0,0,1-2.22.19Zm1.52-1.24,3.4.47a2.46,2.46,0,0,0,1.85-.37,2.24,2.24,0,0,0,.42-3.06,2.44,2.44,0,0,0-1.68-.85l-3.4-.47Zm.79-5.69,3.24.45a2.55,2.55,0,0,0,1.78-.28,1.85,1.85,0,0,0,.78-1.34,1.72,1.72,0,0,0-.39-1.46A2.72,2.72,0,0,0,204.76,7l-3.24-.45Z"/><path class="cls-2" d="M212.94,19.79a3.54,3.54,0,0,1-1.79-.9,3.18,3.18,0,0,1-.88-1.62,4.9,4.9,0,0,1,0-2.12l1-4.91a.39.39,0,0,1,.17-.27.47.47,0,0,1,.31-.05l.87.18a.44.44,0,0,1,.27.18.46.46,0,0,1,.05.31l-1,4.82c-.36,1.73.21,2.75,1.72,3.06a2.33,2.33,0,0,0,1.88-.32,2.73,2.73,0,0,0,1-1.77l1-4.82a.44.44,0,0,1,.18-.27.41.41,0,0,1,.31,0l.85.18a.38.38,0,0,1,.27.17.42.42,0,0,1,0,.31l-1.73,8.25a.37.37,0,0,1-.48.32l-.8-.17a.37.37,0,0,1-.26-.17.42.42,0,0,1-.06-.31l.16-.77a3.6,3.6,0,0,1-1.34.74A3.79,3.79,0,0,1,212.94,19.79Z"/><path class="cls-2" d="M221.14,21.47a.41.41,0,0,1-.25-.19.44.44,0,0,1,0-.32l2-7.13-1.46-.41a.41.41,0,0,1-.25-.19.42.42,0,0,1,0-.31l.16-.59a.4.4,0,0,1,.51-.28l1.45.41.24-.85a3.88,3.88,0,0,1,.73-1.45,2.18,2.18,0,0,1,1.22-.76,3.68,3.68,0,0,1,1.82.13l1,.29a.38.38,0,0,1,.25.19.46.46,0,0,1,0,.31l-.16.58a.47.47,0,0,1-.19.26.39.39,0,0,1-.3,0l-1-.28a1.3,1.3,0,0,0-1.22.11,2.21,2.21,0,0,0-.63,1.12l-.22.77,3.66,1,.25-.86a4,4,0,0,1,.71-1.45,2.16,2.16,0,0,1,1.21-.76,3.79,3.79,0,0,1,1.82.13l1,.29a.41.41,0,0,1,.25.19.44.44,0,0,1,0,.32l-.16.58a.4.4,0,0,1-.51.28l-1-.28a1.28,1.28,0,0,0-1.21.11,2.14,2.14,0,0,0-.63,1.12l-.22.77,2.2.63a.39.39,0,0,1,.26.19.41.41,0,0,1,0,.31l-.17.58a.35.35,0,0,1-.19.25.34.34,0,0,1-.31,0l-2.21-.62-2,7.14a.42.42,0,0,1-.18.25.43.43,0,0,1-.32,0l-.79-.22a.42.42,0,0,1-.25-.2.41.41,0,0,1,0-.31l2-7.13-3.66-1-2,7.14a.4.4,0,0,1-.51.28Z"/><path class="cls-2" d="M233.73,25.51a3.74,3.74,0,0,1-1.41-.87,3.08,3.08,0,0,1-.78-1.3,2.22,2.22,0,0,1,0-1.44,2.3,2.3,0,0,1,1.59-1.51,5.7,5.7,0,0,1,2.77,0l2.62.53.17-.48a1.79,1.79,0,0,0,0-1.42,2.25,2.25,0,0,0-1.34-1,2.32,2.32,0,0,0-1.32-.13,1.68,1.68,0,0,0-.92.54.37.37,0,0,1-.44.13l-.75-.27a.32.32,0,0,1-.24-.21.37.37,0,0,1,0-.29,1.53,1.53,0,0,1,.41-.55,2.78,2.78,0,0,1,.85-.51,3.8,3.8,0,0,1,1.24-.23,4.67,4.67,0,0,1,1.62.3,5,5,0,0,1,1.6.87,2.67,2.67,0,0,1,.83,1.08,2.71,2.71,0,0,1,.22,1.19,3.91,3.91,0,0,1-.22,1.18l-1.93,5.43a.39.39,0,0,1-.52.25L237,26.5a.36.36,0,0,1-.25-.21.41.41,0,0,1,0-.31l.25-.72a3.23,3.23,0,0,1-.79.39,3.37,3.37,0,0,1-1.1.15A4.32,4.32,0,0,1,233.73,25.51Zm.79-1.13a2.81,2.81,0,0,0,1.36.16,2.23,2.23,0,0,0,1.23-.6A3.58,3.58,0,0,0,238,22.5l.16-.47-2-.4a4.6,4.6,0,0,0-2-.08,1.23,1.23,0,0,0-1,.78,1.21,1.21,0,0,0,0,.88,1.75,1.75,0,0,0,.54.71A2.66,2.66,0,0,0,234.52,24.38Z"/><path class="cls-2" d="M240.82,28a.41.41,0,0,1-.23-.22.44.44,0,0,1,0-.32L245,16.51a.45.45,0,0,1,.22-.23.4.4,0,0,1,.32,0l.77.31a.4.4,0,0,1,.24.22.47.47,0,0,1,0,.31l-4.43,10.94a.5.5,0,0,1-.21.24.42.42,0,0,1-.33,0Z"/><path class="cls-2" d="M247.69,31.13a4.53,4.53,0,0,1-1.84-1.41,3.46,3.46,0,0,1-.67-1.88,5,5,0,0,1,.39-2.12c.07-.19.17-.42.3-.71s.24-.51.33-.68a4.71,4.71,0,0,1,1.37-1.68,3.59,3.59,0,0,1,1.86-.72,4.5,4.5,0,0,1,2.25.47,4.36,4.36,0,0,1,1.82,1.4,3.47,3.47,0,0,1,.68,1.87,4.68,4.68,0,0,1-.38,2.13c-.07.18-.17.41-.3.7s-.24.52-.33.69a4.86,4.86,0,0,1-1.36,1.68,3.38,3.38,0,0,1-1.85.73A4.57,4.57,0,0,1,247.69,31.13Zm.57-1.25a2.29,2.29,0,0,0,1.89.1,3.14,3.14,0,0,0,1.5-1.58c.09-.15.18-.35.3-.6s.2-.46.26-.62a3.14,3.14,0,0,0,.21-2.17,2.56,2.56,0,0,0-3.21-1.46,3,3,0,0,0-1.49,1.57c-.09.16-.19.36-.3.61s-.2.45-.26.62a3,3,0,0,0-.22,2.16A2.31,2.31,0,0,0,248.26,29.88Z"/><path class="cls-2" d="M256.48,36.78a.26.26,0,0,1-.14-.2.35.35,0,0,1,.07-.27l1.58-2a.79.79,0,0,1,.3-.25.43.43,0,0,1,.38,0l1.05.57a.27.27,0,0,1,.13.18.31.31,0,0,1,0,.23.57.57,0,0,1-.2.21l-2,1.7a1,1,0,0,1-.3.17.43.43,0,0,1-.34-.06Z"/><path class="cls-2" d="M265.21,40.2a.43.43,0,0,1-.19-.26.49.49,0,0,1,.07-.31l6.33-9.73a.45.45,0,0,1,.25-.21.42.42,0,0,1,.32.07l.69.45a.41.41,0,0,1,.21.25.38.38,0,0,1,0,.2l0,10.82L277.77,34a.42.42,0,0,1,.26-.2.36.36,0,0,1,.31.06l.72.47a.44.44,0,0,1,.2.27.4.4,0,0,1-.08.32l-6.31,9.72a.38.38,0,0,1-.26.19.38.38,0,0,1-.31-.05l-.72-.47a.38.38,0,0,1-.19-.25,1.25,1.25,0,0,0,0-.19l-.05-10.73-4.8,7.39a.42.42,0,0,1-.26.19.4.4,0,0,1-.32-.08Z"/><path class="cls-2" d="M277.64,48.91A3.84,3.84,0,0,1,276,46.26a4.62,4.62,0,0,1,.9-3.18c.08-.13.19-.29.34-.49s.27-.35.37-.46a5.08,5.08,0,0,1,1.8-1.42,3.52,3.52,0,0,1,2-.33,4.13,4.13,0,0,1,2,.85A4.3,4.3,0,0,1,284.87,43a3.58,3.58,0,0,1,.14,2.13,5.78,5.78,0,0,1-1.08,2.26l-.18.24a.4.4,0,0,1-.28.17.44.44,0,0,1-.3-.09l-4.92-3.69,0,.06-.06.07a3.73,3.73,0,0,0-.56,1.28,2.52,2.52,0,0,0,.05,1.31,2.06,2.06,0,0,0,.79,1.08,2.37,2.37,0,0,0,1,.48,2.64,2.64,0,0,0,.81.07,2.71,2.71,0,0,0,.51-.08.89.89,0,0,1,.36-.07.58.58,0,0,1,.25.14l.69.51a.42.42,0,0,1,.17.25.28.28,0,0,1-.08.28,1.37,1.37,0,0,1-.62.35,3.3,3.3,0,0,1-1.06.15,4.22,4.22,0,0,1-1.34-.24A5,5,0,0,1,277.64,48.91ZM279,43.08l3.9,2.92,0,0a3.28,3.28,0,0,0,.61-1.32,2.26,2.26,0,0,0-.08-1.29,2.29,2.29,0,0,0-.84-1.08,2.23,2.23,0,0,0-2.51-.2A3.38,3.38,0,0,0,279,43Z"/><path class="cls-2" d="M284.25,53.86a.48.48,0,0,1-.19-.32,1,1,0,0,1,.05-.39l3.49-7.89a1,1,0,0,1,.09-.15A.35.35,0,0,1,288,45a.39.39,0,0,1,.26.09l.59.51a.43.43,0,0,1,.16.28.58.58,0,0,1,0,.24l-2.9,6.36L292,48.83a.54.54,0,0,1,.27-.09.46.46,0,0,1,.35.14l.45.39a.48.48,0,0,1,.19.33.42.42,0,0,1-.06.28l-2.74,6.4,5.88-3.78a.34.34,0,0,1,.22-.06.4.4,0,0,1,.3.11l.59.51a.36.36,0,0,1,.14.26.39.39,0,0,1-.1.27.38.38,0,0,1-.14.11L290,58.29a.65.65,0,0,1-.36.12.55.55,0,0,1-.36-.16l-.53-.45a.69.69,0,0,1-.21-.34.64.64,0,0,1,.06-.38l2.61-6.17-5.73,3.47a.67.67,0,0,1-.37.1.58.58,0,0,1-.37-.16Z"/><path class="cls-2" d="M298.06,66.79a.42.42,0,0,1-.12-.29.41.41,0,0,1,.13-.29l3-2.89,2.31-8.1.06-.1a.58.58,0,0,1,.08-.1.35.35,0,0,1,.25-.09.34.34,0,0,1,.25.11l.63.67a.45.45,0,0,1,.14.26.4.4,0,0,1,0,.28L303,62.73l6.57-1.45a.77.77,0,0,1,.3,0,.51.51,0,0,1,.25.15l.62.66a.35.35,0,0,1,0,.51.3.3,0,0,1-.1.07l-.11,0-8.2,1.9-3.05,2.89a.4.4,0,0,1-.29.12.48.48,0,0,1-.3-.15Z"/><path class="cls-2" d="M304.38,74.08A4.55,4.55,0,0,1,303.31,72a3.52,3.52,0,0,1,.19-2,5,5,0,0,1,1.25-1.76c.15-.14.34-.31.58-.51s.44-.36.59-.48a4.88,4.88,0,0,1,1.95-.94,3.56,3.56,0,0,1,2,.14,5.17,5.17,0,0,1,2.9,3.42,3.61,3.61,0,0,1-.19,2,4.81,4.81,0,0,1-1.24,1.77l-.57.51-.6.48a4.94,4.94,0,0,1-1.94.95,3.56,3.56,0,0,1-2-.13A4.59,4.59,0,0,1,304.38,74.08Zm1-.89a2.32,2.32,0,0,0,1.68.89,3.06,3.06,0,0,0,2-.79,5.93,5.93,0,0,0,.53-.42c.21-.18.38-.33.5-.45a3,3,0,0,0,1.11-1.87A2.55,2.55,0,0,0,309,67.86a3,3,0,0,0-2,.79l-.53.42-.51.45a3,3,0,0,0-1.11,1.87A2.34,2.34,0,0,0,305.42,73.19Z"/><path class="cls-2" d="M308.74,79.14a.37.37,0,0,1-.09-.31.38.38,0,0,1,.16-.27l6.68-5.11a.45.45,0,0,1,.31-.09.39.39,0,0,1,.28.16l.5.65a.44.44,0,0,1-.08.6l-.62.47a2.28,2.28,0,0,1,1.31.23,3.52,3.52,0,0,1,1.15,1l.43.57a.35.35,0,0,1,.08.29.42.42,0,0,1-.17.27l-.58.44a.4.4,0,0,1-.29.09.46.46,0,0,1-.26-.16l-.64-.85a2,2,0,0,0-1.37-.86,2,2,0,0,0-1.54.48l-4.15,3.18a.4.4,0,0,1-.31.08.49.49,0,0,1-.28-.17Z"/><path class="cls-2" d="M312.72,84.43a.38.38,0,0,1-.07-.3.41.41,0,0,1,.18-.27l9.71-6.71a.36.36,0,0,1,.3-.07.39.39,0,0,1,.26.17l.48.69a.39.39,0,0,1,.07.31.44.44,0,0,1-.17.26L318.39,82l4.39,1.22a2.27,2.27,0,0,1,.38.13.9.9,0,0,1,.27.28l.54.78a.36.36,0,0,1,.06.28.36.36,0,0,1-.16.24.5.5,0,0,1-.16.05.46.46,0,0,1-.24,0l-5.14-1.43-1.05,6.26a.51.51,0,0,1-.15.36.35.35,0,0,1-.28.06.34.34,0,0,1-.23-.16l-.53-.76a.82.82,0,0,1-.17-.36,1.31,1.31,0,0,1,0-.39l.86-5.42-3,2.09a.44.44,0,0,1-.31.08.37.37,0,0,1-.26-.18Z"/><path class="cls-2" d="M318.86,100.92a.38.38,0,0,1,0-.31.33.33,0,0,1,.19-.24l16.39-9.25a.38.38,0,0,1,.31,0,.37.37,0,0,1,.24.2l.34.6a.39.39,0,0,1,0,.31.41.41,0,0,1-.2.25l-16.38,9.24a.46.46,0,0,1-.32,0,.42.42,0,0,1-.24-.2Z"/><path class="cls-2" d="M329.47,114.28a5.61,5.61,0,0,1-.52-2.67,4,4,0,0,1,.84-2.2,5.82,5.82,0,0,1,2-1.59l1.52-.69,1.54-.65a5.6,5.6,0,0,1,2.54-.4,4,4,0,0,1,2.17.88,5.52,5.52,0,0,1,1.6,2.19,6,6,0,0,1,.55,2.15,4.81,4.81,0,0,1-.21,1.75,3.93,3.93,0,0,1-.68,1.27,2.66,2.66,0,0,1-.82.7.29.29,0,0,1-.27,0,.45.45,0,0,1-.21-.22l-.42-1a.35.35,0,0,1,0-.26.59.59,0,0,1,.16-.24,2.87,2.87,0,0,0,.62-.84,2.78,2.78,0,0,0,.29-1.19,3.79,3.79,0,0,0-.36-1.56,3.28,3.28,0,0,0-1.61-1.77,3.42,3.42,0,0,0-2.69.15c-1,.39-1.94.81-2.9,1.27a3.51,3.51,0,0,0-2,1.88,3.29,3.29,0,0,0,.21,2.4,3.85,3.85,0,0,0,1,1.4,2.6,2.6,0,0,0,1.45.64,3.64,3.64,0,0,0,1.86-.35l.69-.3-1.07-2.45a.37.37,0,0,1,0-.31.42.42,0,0,1,.24-.23l.52-.23a.39.39,0,0,1,.55.2l1.61,3.69a.4.4,0,0,1,0,.32.46.46,0,0,1-.25.22l-1.56.69a5.25,5.25,0,0,1-2.57.47,4.11,4.11,0,0,1-2.23-.92A5.77,5.77,0,0,1,329.47,114.28Z"/><path class="cls-2" d="M332.52,121.24a.37.37,0,0,1,0-.31.39.39,0,0,1,.24-.21l7.88-2.92a.4.4,0,0,1,.32,0,.36.36,0,0,1,.22.23l.29.77a.47.47,0,0,1,0,.33.43.43,0,0,1-.24.22l-.74.27a2.22,2.22,0,0,1,1.19.6,3.39,3.39,0,0,1,.8,1.3l.25.66a.37.37,0,0,1,0,.31.44.44,0,0,1-.24.2l-.68.25a.32.32,0,0,1-.3,0,.38.38,0,0,1-.2-.23l-.37-1a2.05,2.05,0,0,0-1.05-1.22,2.11,2.11,0,0,0-1.62,0l-4.9,1.82a.4.4,0,0,1-.32,0,.42.42,0,0,1-.21-.24Z"/><path class="cls-2" d="M335.54,130.46a3.85,3.85,0,0,1,.2-3.12,4.67,4.67,0,0,1,2.58-2.06c.15-.06.33-.12.57-.19s.42-.13.57-.17a5.28,5.28,0,0,1,2.29-.1,3.66,3.66,0,0,1,1.82.91,4.15,4.15,0,0,1,1.13,1.85,4.19,4.19,0,0,1,.13,2.33,3.58,3.58,0,0,1-1.12,1.82,5.87,5.87,0,0,1-2.2,1.2l-.28.09a.41.41,0,0,1-.33,0,.48.48,0,0,1-.19-.25l-1.84-5.87-.07,0-.09,0a4,4,0,0,0-1.2.71,2.57,2.57,0,0,0-.73,1.09,2.12,2.12,0,0,0,0,1.34,2.55,2.55,0,0,0,.51,1,2.88,2.88,0,0,0,.62.53,2.71,2.71,0,0,0,.46.23,1,1,0,0,1,.34.15.7.7,0,0,1,.12.26l.26.81a.47.47,0,0,1,0,.31.29.29,0,0,1-.24.18,1.32,1.32,0,0,1-.7-.08,3.24,3.24,0,0,1-1-.5,4,4,0,0,1-.95-1A4.81,4.81,0,0,1,335.54,130.46Zm4.5-4,1.46,4.65.05,0a3.32,3.32,0,0,0,1.27-.7,2.4,2.4,0,0,0,.69-1.11,2.36,2.36,0,0,0-.05-1.36,2.32,2.32,0,0,0-.74-1.14,2.38,2.38,0,0,0-1.19-.49,3.32,3.32,0,0,0-1.44.16Z"/><path class="cls-2" d="M338.18,139.84a3.89,3.89,0,0,1,.39-3.1,4.68,4.68,0,0,1,2.71-1.91c.14-.05.33-.1.57-.16l.58-.13a5.32,5.32,0,0,1,2.29,0,3.73,3.73,0,0,1,1.77,1,4.7,4.7,0,0,1,1,4.26,3.63,3.63,0,0,1-1.23,1.74,5.77,5.77,0,0,1-2.27,1.07l-.29.07a.38.38,0,0,1-.32,0,.41.41,0,0,1-.18-.26l-1.49-6-.07,0-.08,0a3.89,3.89,0,0,0-1.25.64,2.65,2.65,0,0,0-.79,1,2.1,2.1,0,0,0-.07,1.34,2.46,2.46,0,0,0,.45,1,3.12,3.12,0,0,0,.59.57,3.42,3.42,0,0,0,.44.25,1,1,0,0,1,.33.18.72.72,0,0,1,.11.26l.21.83a.41.41,0,0,1,0,.31.29.29,0,0,1-.24.16,1.4,1.4,0,0,1-.7-.12,3.44,3.44,0,0,1-.92-.56,4.29,4.29,0,0,1-.89-1A5.1,5.1,0,0,1,338.18,139.84Zm4.73-3.67,1.18,4.72h.05a3.27,3.27,0,0,0,1.31-.63,2.35,2.35,0,0,0,.76-1.06,2.4,2.4,0,0,0,0-1.36,2.26,2.26,0,0,0-.67-1.18,2.31,2.31,0,0,0-1.16-.57,3.44,3.44,0,0,0-1.45.07Z"/><path class="cls-2" d="M339.85,146.13a.41.41,0,0,1,.06-.31.39.39,0,0,1,.26-.17l8.29-1.53a.4.4,0,0,1,.48.33l.15.82a.41.41,0,0,1-.06.31.39.39,0,0,1-.27.17l-.77.14a3.43,3.43,0,0,1,1.18,1,3.75,3.75,0,0,1,.71,1.7,3.69,3.69,0,0,1-.14,2,3.24,3.24,0,0,1-1.17,1.45,4.78,4.78,0,0,1-2,.78l-4.93.91a.43.43,0,0,1-.3,0,.39.39,0,0,1-.17-.26l-.16-.88a.42.42,0,0,1,.06-.31.38.38,0,0,1,.27-.16l4.84-.89a3,3,0,0,0,1.81-1,2.22,2.22,0,0,0,.36-1.88,2.31,2.31,0,0,0-1-1.61,2.72,2.72,0,0,0-2-.3l-4.85.89a.42.42,0,0,1-.31-.06A.38.38,0,0,1,340,147Z"/><path class="cls-2" d="M340.78,160.46a.27.27,0,0,1,.08-.23.37.37,0,0,1,.26-.09l2.57.13a.77.77,0,0,1,.38.11.4.4,0,0,1,.19.33l.13,1.18a.26.26,0,0,1-.06.21.33.33,0,0,1-.21.11.75.75,0,0,1-.29,0l-2.52-.65a.91.91,0,0,1-.31-.16.4.4,0,0,1-.15-.31Z"/><path class="cls-2" d="M343,171a.47.47,0,0,1,.11-.36.64.64,0,0,1,.35-.2l11.34-2.64.12,0H355a.32.32,0,0,1,.25.1.32.32,0,0,1,.11.24l0,.92c0,.25-.09.4-.29.44L346,171.56l6.35,1.73a.67.67,0,0,1,.3.18.53.53,0,0,1,.15.38l0,.65a.58.58,0,0,1-.12.4.79.79,0,0,1-.29.17l-6.23,2.12,9.22,1.52c.2,0,.31.18.32.44l0,.92a.3.3,0,0,1-.1.25.33.33,0,0,1-.24.12h-.2l-11.48-1.94a.68.68,0,0,1-.36-.18.49.49,0,0,1-.13-.36l0-.69a.56.56,0,0,1,.11-.4.67.67,0,0,1,.31-.2l6.71-2.41-6.84-2a.79.79,0,0,1-.33-.2.52.52,0,0,1-.13-.37Z"/><path class="cls-2" d="M343.18,183.15a.4.4,0,0,1,.12-.29.39.39,0,0,1,.3-.1l8.42.2a.41.41,0,0,1,.29.13.33.33,0,0,1,.11.29l0,.85a.37.37,0,0,1-.12.29.44.44,0,0,1-.3.1l-8.42-.21a.37.37,0,0,1-.29-.12.34.34,0,0,1-.11-.28Zm11,.13a.38.38,0,0,1,.12-.29.44.44,0,0,1,.3-.11l1,0a.38.38,0,0,1,.29.12.44.44,0,0,1,.11.3l0,1.12a.4.4,0,0,1-.12.29.39.39,0,0,1-.3.1l-1,0a.38.38,0,0,1-.29-.12.44.44,0,0,1-.11-.3Z"/><path class="cls-2" d="M342.7,190.12a5,5,0,0,1,.36-1.69,3.75,3.75,0,0,1,.68-1.12,2.93,2.93,0,0,1,.75-.62,1.37,1.37,0,0,1,.58-.2.36.36,0,0,1,.3.14.48.48,0,0,1,.08.29l-.05.79a.35.35,0,0,1,0,.16.53.53,0,0,1-.17.16c-.17.14-.35.31-.53.48a2.68,2.68,0,0,0-.45.68,3.39,3.39,0,0,0,0,2.54,1.14,1.14,0,0,0,1,.65,1.06,1.06,0,0,0,.72-.19,2.14,2.14,0,0,0,.54-.82c.16-.4.35-1,.55-1.65a6.14,6.14,0,0,1,.72-1.65,2.31,2.31,0,0,1,.92-.83,2.37,2.37,0,0,1,1.17-.19,2.32,2.32,0,0,1,1.24.47,3,3,0,0,1,.93,1.21,4,4,0,0,1,.27,1.91,4.88,4.88,0,0,1-.33,1.57,3.86,3.86,0,0,1-.65,1,2.93,2.93,0,0,1-.73.6,1.34,1.34,0,0,1-.58.19.32.32,0,0,1-.28-.12.37.37,0,0,1-.1-.29l.05-.75a.32.32,0,0,1,.06-.2.93.93,0,0,1,.14-.14,5.21,5.21,0,0,0,.49-.39,2,2,0,0,0,.42-.6,3.05,3.05,0,0,0,.21-1,2.07,2.07,0,0,0-.28-1.35,1.19,1.19,0,0,0-.92-.51,1,1,0,0,0-.61.16,1.63,1.63,0,0,0-.53.71,13.36,13.36,0,0,0-.57,1.6,5.88,5.88,0,0,1-.74,1.81,2.53,2.53,0,0,1-1,.9,2.46,2.46,0,0,1-2.55-.32,2.94,2.94,0,0,1-.9-1.34A5.23,5.23,0,0,1,342.7,190.12Z"/><path class="cls-2" d="M341.83,199.48a4.5,4.5,0,0,1,.75-2.1,3.4,3.4,0,0,1,1.56-1.24,4.9,4.9,0,0,1,2.24-.26c.18,0,.42,0,.71.07s.53.07.71.1a4.87,4.87,0,0,1,2.11.79,3.42,3.42,0,0,1,1.23,1.58,4.56,4.56,0,0,1,.22,2.22,4.84,4.84,0,0,1-.5,1.72,3.46,3.46,0,0,1-.87,1.12,3.15,3.15,0,0,1-1,.6,2.6,2.6,0,0,1-1,.14.31.31,0,0,1-.27-.14.49.49,0,0,1-.07-.32l.11-.84a.37.37,0,0,1,.11-.26.87.87,0,0,1,.29-.14,2.37,2.37,0,0,0,1.33-.72,2.46,2.46,0,0,0,.51-1.31,2.34,2.34,0,0,0-.44-1.8,3,3,0,0,0-2-1q-.63-.1-1.23-.15a3,3,0,0,0-2.2.46,2.39,2.39,0,0,0-.85,1.64,2.52,2.52,0,0,0,.19,1.4,2.36,2.36,0,0,0,1.11,1,1,1,0,0,1,.25.21.36.36,0,0,1,.05.28l-.1.84a.47.47,0,0,1-.14.29.32.32,0,0,1-.3.07,2.49,2.49,0,0,1-.74-.25,2.92,2.92,0,0,1-.73-.54,3.41,3.41,0,0,1-.61-.86,3.85,3.85,0,0,1-.36-1.16A5.2,5.2,0,0,1,341.83,199.48Z"/><path class="cls-2" d="M340.37,209.05a4.54,4.54,0,0,1,.91-2.13,3.45,3.45,0,0,1,1.66-1.1,4.79,4.79,0,0,1,2.15-.15c.2,0,.46.06.77.12s.55.11.74.15a4.8,4.8,0,0,1,2,.91,3.56,3.56,0,0,1,1.15,1.63,5.15,5.15,0,0,1-.81,4.41,3.56,3.56,0,0,1-1.65,1.12,4.8,4.8,0,0,1-2.16.15q-.29,0-.75-.12c-.3,0-.56-.11-.75-.15a5,5,0,0,1-2-.9,3.46,3.46,0,0,1-1.16-1.63A4.51,4.51,0,0,1,340.37,209.05Zm1.35.25a2.25,2.25,0,0,0,.37,1.85,3,3,0,0,0,1.89,1.07c.17.05.39.09.66.14l.67.11a3.17,3.17,0,0,0,2.15-.33,2.55,2.55,0,0,0,.63-3.47,3,3,0,0,0-1.89-1.07c-.17,0-.39-.09-.66-.13l-.67-.11a3,3,0,0,0-2.14.32A2.3,2.3,0,0,0,341.72,209.3Z"/><path class="cls-2" d="M339.25,215.61a.39.39,0,0,1,.19-.26.37.37,0,0,1,.31,0l8.18,2a.39.39,0,0,1,.25.18.38.38,0,0,1,0,.31l-.2.82a.39.39,0,0,1-.18.25.38.38,0,0,1-.31,0l-.76-.19a3.73,3.73,0,0,1,.67,1.37,3.8,3.8,0,0,1-.06,1.85,3.66,3.66,0,0,1-1,1.78,3.18,3.18,0,0,1-1.66.84,5,5,0,0,1-2.13-.11l-4.86-1.21a.41.41,0,0,1-.26-.18.34.34,0,0,1,0-.3l.21-.86a.39.39,0,0,1,.19-.26.37.37,0,0,1,.31,0l4.78,1.19a2.93,2.93,0,0,0,2-.11,2.21,2.21,0,0,0,1.11-1.56,2.29,2.29,0,0,0-.25-1.88,2.69,2.69,0,0,0-1.73-1.12l-4.77-1.2a.36.36,0,0,1-.26-.18.37.37,0,0,1,0-.31Z"/><path class="cls-2" d="M335.57,228.45a4.72,4.72,0,0,1,.75-1.56,3.81,3.81,0,0,1,.92-.92,2.91,2.91,0,0,1,.88-.42,1.42,1.42,0,0,1,.61-.06.32.32,0,0,1,.25.21.45.45,0,0,1,0,.3l-.24.75a.35.35,0,0,1-.07.15.64.64,0,0,1-.2.12,6.64,6.64,0,0,0-.63.34,2.35,2.35,0,0,0-.6.55,3.45,3.45,0,0,0-.58,2.47,1.13,1.13,0,0,0,.8.87,1.06,1.06,0,0,0,.75,0,2,2,0,0,0,.71-.67,15.24,15.24,0,0,0,.93-1.47,6.45,6.45,0,0,1,1.09-1.43,2.32,2.32,0,0,1,1.1-.58,2.4,2.4,0,0,1,1.18.09,2.34,2.34,0,0,1,1.09.75,3,3,0,0,1,.62,1.4,4.15,4.15,0,0,1-.2,1.92,4.83,4.83,0,0,1-.69,1.44,3.55,3.55,0,0,1-.88.86,3.11,3.11,0,0,1-.85.41,1.52,1.52,0,0,1-.61.05.37.37,0,0,1-.25-.19.48.48,0,0,1,0-.31l.22-.71a.41.41,0,0,1,.12-.18.91.91,0,0,1,.16-.11,3.52,3.52,0,0,0,.57-.26,1.84,1.84,0,0,0,.55-.48,2.66,2.66,0,0,0,.44-.91,2,2,0,0,0,.05-1.38,1.18,1.18,0,0,0-.77-.71.91.91,0,0,0-.63,0,1.71,1.71,0,0,0-.69.56,15.15,15.15,0,0,0-.93,1.43,5.85,5.85,0,0,1-1.15,1.57,2.19,2.19,0,0,1-2.37.56,2.29,2.29,0,0,1-1.18-.83,2.94,2.94,0,0,1-.55-1.51A5.12,5.12,0,0,1,335.57,228.45Z"/><path class="cls-2" d="M333.78,234.34a.42.42,0,0,1,.21-.24.37.37,0,0,1,.31,0l7.93,2.85a.42.42,0,0,1,.24.21.44.44,0,0,1,0,.32l-.29.8a.37.37,0,0,1-.21.23.41.41,0,0,1-.31,0l-7.93-2.85a.44.44,0,0,1-.24-.2.37.37,0,0,1,0-.31Zm10.37,3.58a.42.42,0,0,1,.21-.24.37.37,0,0,1,.31,0l.91.33a.36.36,0,0,1,.23.2.4.4,0,0,1,0,.32l-.38,1a.42.42,0,0,1-.21.24.37.37,0,0,1-.31,0l-.9-.33a.41.41,0,0,1-.24-.2.4.4,0,0,1,0-.32Z"/><path class="cls-2" d="M332.36,238.27a.41.41,0,0,1,.22-.23.4.4,0,0,1,.32,0l7.79,3.21a.41.41,0,0,1,.23.22.37.37,0,0,1,0,.31l-.32.77a.39.39,0,0,1-.22.23.42.42,0,0,1-.31,0l-.73-.3a3.45,3.45,0,0,1,.47,1.45,3.74,3.74,0,0,1-.33,1.82,3.67,3.67,0,0,1-1.22,1.62,3.12,3.12,0,0,1-1.76.59,5.13,5.13,0,0,1-2.09-.42l-4.63-1.91a.37.37,0,0,1-.23-.21.34.34,0,0,1,0-.31l.34-.82a.35.35,0,0,1,.21-.22.36.36,0,0,1,.32,0L335,246a3,3,0,0,0,2,.18,2.2,2.2,0,0,0,1.33-1.38,2.29,2.29,0,0,0,0-1.9,2.69,2.69,0,0,0-1.54-1.36l-4.55-1.87a.41.41,0,0,1-.23-.22.44.44,0,0,1,0-.32Z"/><path class="cls-2" d="M319.11,257.63a.41.41,0,0,1,.25-.2.39.39,0,0,1,.31.05L336,266.74a.42.42,0,0,1,.2.24.38.38,0,0,1-.05.31l-.34.61a.42.42,0,0,1-.24.2.38.38,0,0,1-.31-.05l-16.38-9.26a.37.37,0,0,1-.19-.24.4.4,0,0,1,0-.32Z"/><path class="cls-2" d="M315.68,270.36a.35.35,0,0,1,.27-.18.43.43,0,0,1,.3.08l9.47,6.71a.44.44,0,0,1,.19.27.37.37,0,0,1-.08.31l-2.33,3.3a6.89,6.89,0,0,1-2.16,2.09,3.49,3.49,0,0,1-2.27.39,6.2,6.2,0,0,1-2.46-1.09c-.45-.3-.83-.57-1.16-.8l-1.12-.81a6.67,6.67,0,0,1-1.9-2,3.29,3.29,0,0,1-.38-2.24,6.87,6.87,0,0,1,1.24-2.66Zm.46,2-1.56,2.21a4.6,4.6,0,0,0-.86,1.79,2.07,2.07,0,0,0,.28,1.49,5,5,0,0,0,1.4,1.42c.28.23.53.41.75.57l.65.46c.22.16.47.32.77.5a3.67,3.67,0,0,0,2.55.81,3.53,3.53,0,0,0,2.2-1.67l1.51-2.13Z"/><path class="cls-2" d="M306.52,282.35a3.81,3.81,0,0,1,2.71-1.55,4.64,4.64,0,0,1,3.15,1l.47.36.45.39a5.33,5.33,0,0,1,1.35,1.86,3.7,3.7,0,0,1,.24,2,4.16,4.16,0,0,1-.93,2,4.26,4.26,0,0,1-1.87,1.4,3.7,3.7,0,0,1-2.14.06,5.93,5.93,0,0,1-2.2-1.18l-.24-.19a.39.39,0,0,1-.16-.28.42.42,0,0,1,.11-.29l3.88-4.78-.06,0-.07-.06a3.72,3.72,0,0,0-1.25-.61,2.53,2.53,0,0,0-1.31,0,2.05,2.05,0,0,0-1.11.75,2.62,2.62,0,0,0-.53.95,3.08,3.08,0,0,0-.1.81q0,.36.06.51a1.06,1.06,0,0,1,.06.36.63.63,0,0,1-.15.25l-.53.67a.48.48,0,0,1-.27.16.28.28,0,0,1-.27-.1,1.32,1.32,0,0,1-.32-.63,3.45,3.45,0,0,1-.11-1.07,4.26,4.26,0,0,1,.29-1.32A5,5,0,0,1,306.52,282.35Zm5.77,1.58-3.08,3.78.05,0a3.23,3.23,0,0,0,1.28.67,2.39,2.39,0,0,0,1.3,0,2.41,2.41,0,0,0,1.12-.79,2.31,2.31,0,0,0,.54-1.25,2.25,2.25,0,0,0-.25-1.26,3.42,3.42,0,0,0-.92-1.12Z"/><path class="cls-2" d="M300.32,289.8a3.08,3.08,0,0,1,1.37-.95,2.21,2.21,0,0,1,1.41.06,4.32,4.32,0,0,1,1.42.9L308,293l.93-1a.37.37,0,0,1,.28-.14.39.39,0,0,1,.3.11l.45.4a.47.47,0,0,1,.14.29.42.42,0,0,1-.11.29l-.93,1,2.2,2a.37.37,0,0,1,.14.28.39.39,0,0,1-.11.3l-.56.62a.44.44,0,0,1-.28.14.39.39,0,0,1-.29-.11l-2.21-2-1.48,1.64a.38.38,0,0,1-.28.14.41.41,0,0,1-.29-.11l-.45-.41a.37.37,0,0,1-.14-.28.36.36,0,0,1,.11-.29l1.47-1.64-3.39-3.06a2.59,2.59,0,0,0-1.17-.67,1.08,1.08,0,0,0-1,.43l-.73.81a.44.44,0,0,1-.28.14.43.43,0,0,1-.3-.11l-.47-.43a.38.38,0,0,1-.14-.28.39.39,0,0,1,.11-.3Z"/><path class="cls-2" d="M297.84,292.45a.37.37,0,0,1,.29-.13.42.42,0,0,1,.29.12l6,5.88a.43.43,0,0,1,.13.3.36.36,0,0,1-.11.29l-.57.59a.45.45,0,0,1-.3.13.42.42,0,0,1-.31-.13l-.56-.54a2.32,2.32,0,0,1,0,1.33,3.42,3.42,0,0,1-.83,1.28l-.5.51a.39.39,0,0,1-.28.12.41.41,0,0,1-.28-.13l-.53-.51a.37.37,0,0,1-.12-.27.36.36,0,0,1,.12-.28l.74-.76a1.92,1.92,0,0,0,0-2.93l-3.74-3.66a.4.4,0,0,1-.12-.29.43.43,0,0,1,.13-.3Z"/><path class="cls-2" d="M290.73,299.17a4.52,4.52,0,0,1,2-1.15,3.46,3.46,0,0,1,2,.11,4.93,4.93,0,0,1,1.81,1.17l.54.55c.21.23.38.42.5.57a4.82,4.82,0,0,1,1,1.91,3.55,3.55,0,0,1-.06,2,4.48,4.48,0,0,1-1.29,1.9,4.53,4.53,0,0,1-2,1.14,3.54,3.54,0,0,1-2-.09,5.08,5.08,0,0,1-1.83-1.17l-.52-.55a6.8,6.8,0,0,1-.51-.58,4.83,4.83,0,0,1-1-1.89,3.46,3.46,0,0,1,0-2A4.56,4.56,0,0,1,290.73,299.17Zm.93,1a2.32,2.32,0,0,0-.82,1.71,3.11,3.11,0,0,0,.88,2c.11.14.26.31.44.51l.48.48a3,3,0,0,0,1.91,1,2.28,2.28,0,0,0,1.77-.68,2.32,2.32,0,0,0,.82-1.71,3,3,0,0,0-.88-2l-.44-.5c-.19-.2-.35-.37-.48-.49a3,3,0,0,0-1.91-1A2.33,2.33,0,0,0,291.66,300.18Z"/><path class="cls-2" d="M285.84,303.76a.38.38,0,0,1,.3-.1.37.37,0,0,1,.28.14l5.45,6.43a.42.42,0,0,1,.1.3.41.41,0,0,1-.15.28l-.65.55a.37.37,0,0,1-.29.1.42.42,0,0,1-.27-.16l-5.46-6.43a.4.4,0,0,1-.1-.29.36.36,0,0,1,.14-.27ZM293,312a.38.38,0,0,1,.3-.1.41.41,0,0,1,.28.15l.62.73a.38.38,0,0,1,.1.3.41.41,0,0,1-.15.28l-.85.72a.38.38,0,0,1-.3.1.41.41,0,0,1-.28-.15l-.62-.73a.38.38,0,0,1-.1-.3.37.37,0,0,1,.15-.27Z"/><path class="cls-2" d="M280.12,308.43a3.1,3.1,0,0,1,1.5-.71A2.24,2.24,0,0,1,283,308a4.36,4.36,0,0,1,1.26,1.13l2.91,3.68,1.09-.86a.38.38,0,0,1,.3-.1.42.42,0,0,1,.27.16l.38.48a.41.41,0,0,1,.09.3.35.35,0,0,1-.16.27l-1.08.86,1.84,2.33a.41.41,0,0,1,.09.3.35.35,0,0,1-.16.27l-.65.52a.36.36,0,0,1-.3.09.41.41,0,0,1-.28-.15L286.76,315,285,316.33a.41.41,0,0,1-.3.09.38.38,0,0,1-.27-.16l-.38-.47a.45.45,0,0,1-.09-.31.43.43,0,0,1,.16-.27l1.73-1.37L283,310.26a2.52,2.52,0,0,0-1-.85,1.06,1.06,0,0,0-1.09.25l-.85.67a.35.35,0,0,1-.3.09.41.41,0,0,1-.28-.15l-.39-.51a.34.34,0,0,1-.09-.3.37.37,0,0,1,.15-.27Z"/><path class="cls-2" d="M273.41,311.74a.26.26,0,0,1,.24,0,.35.35,0,0,1,.2.18L275,314.2a.7.7,0,0,1,.09.39.42.42,0,0,1-.2.32l-1,.68a.27.27,0,0,1-.21.05.36.36,0,0,1-.19-.13.63.63,0,0,1-.11-.28l-.63-2.52a.85.85,0,0,1,0-.35.43.43,0,0,1,.21-.28Z"/><path class="cls-2" d="M266.45,318.06a.38.38,0,0,1,.31,0,.37.37,0,0,1,.25.19l5.85,10a.44.44,0,0,1,.05.33.43.43,0,0,1-.19.25l-.77.44a.38.38,0,0,1-.33.07.37.37,0,0,1-.2-.09l-6.87-4.31.34,8.12a.63.63,0,0,1,0,.22.46.46,0,0,1-.22.25l-.75.43a.4.4,0,0,1-.33.06.42.42,0,0,1-.25-.21l-5.85-10a.43.43,0,0,1-.05-.31.44.44,0,0,1,.21-.26l.76-.44a.42.42,0,0,1,.31-.05.44.44,0,0,1,.25.2l4.4,7.56L263,324a.56.56,0,0,1,0-.34.65.65,0,0,1,.26-.26l.48-.28a.58.58,0,0,1,.36-.1.65.65,0,0,1,.33.13l5.49,3.51-4.41-7.56a.43.43,0,0,1-.05-.31.41.41,0,0,1,.2-.25Z"/><path class="cls-2" d="M250.67,326.67a.4.4,0,0,1,.32,0,.37.37,0,0,1,.23.21l3.63,7.6a.4.4,0,0,1,0,.32.39.39,0,0,1-.21.23l-.77.37a.42.42,0,0,1-.31,0,.43.43,0,0,1-.22-.22l-3.64-7.61a.42.42,0,0,1,0-.31.38.38,0,0,1,.21-.22Zm4.86,9.83a.42.42,0,0,1,.31,0,.43.43,0,0,1,.24.22l.41.86a.4.4,0,0,1,0,.32.43.43,0,0,1-.21.23l-1,.48a.4.4,0,0,1-.32,0,.39.39,0,0,1-.23-.21l-.41-.87a.43.43,0,0,1,0-.31.38.38,0,0,1,.22-.23Z"/><path class="cls-2" d="M243.76,329.6a4.53,4.53,0,0,1,2.19-.4,3.38,3.38,0,0,1,1.86.74,4.86,4.86,0,0,1,1.35,1.81c.08.16.18.37.29.64a6.65,6.65,0,0,1,.26.67,4.78,4.78,0,0,1,.38,2.22,3.45,3.45,0,0,1-.75,1.85,4.58,4.58,0,0,1-1.82,1.3,5,5,0,0,1-1.73.44,3.88,3.88,0,0,1-1.41-.2,2.87,2.87,0,0,1-1-.6,2.51,2.51,0,0,1-.62-.8.29.29,0,0,1,0-.3.41.41,0,0,1,.23-.22l.79-.33a.34.34,0,0,1,.27,0,.86.86,0,0,1,.28.18,2.34,2.34,0,0,0,1.28.79,2.55,2.55,0,0,0,1.4-.21,2.35,2.35,0,0,0,1.33-1.29,3,3,0,0,0-.16-2.22c-.16-.4-.32-.78-.49-1.15a3,3,0,0,0-1.5-1.67,2.35,2.35,0,0,0-1.85.08,2.51,2.51,0,0,0-1.12.87,2.4,2.4,0,0,0-.32,1.47.85.85,0,0,1,0,.32.46.46,0,0,1-.22.18l-.78.33a.4.4,0,0,1-.32,0,.29.29,0,0,1-.21-.22,2.33,2.33,0,0,1-.15-.76,3,3,0,0,1,.1-.91,3.19,3.19,0,0,1,.44-1,3.75,3.75,0,0,1,.82-.89A5.76,5.76,0,0,1,243.76,329.6Z"/><path class="cls-2" d="M238,332.16a.37.37,0,0,1,.31,0,.42.42,0,0,1,.21.24l3.94,11.13a.37.37,0,0,1,0,.31.42.42,0,0,1-.24.21l-.84.29a.36.36,0,0,1-.32,0,.44.44,0,0,1-.2-.24l-1.38-3.91a3.71,3.71,0,0,1-.78,1.31,4.21,4.21,0,0,1-3.56,1.12,3.14,3.14,0,0,1-1.62-.91,4.85,4.85,0,0,1-1.09-1.83l-1.68-4.73a.42.42,0,0,1,0-.31.44.44,0,0,1,.25-.21l.84-.3a.42.42,0,0,1,.52.25l1.65,4.65a2.85,2.85,0,0,0,1.22,1.63,2.24,2.24,0,0,0,1.91.07,2.39,2.39,0,0,0,1.44-1.26,2.67,2.67,0,0,0,0-2.06L236.91,333a.41.41,0,0,1,0-.31.38.38,0,0,1,.25-.21Z"/><path class="cls-2" d="M227.89,335.58a.39.39,0,0,1,.32,0,.45.45,0,0,1,.2.25l2.44,8.07a.37.37,0,0,1,0,.31.42.42,0,0,1-.25.2l-.82.24a.35.35,0,0,1-.3,0,.48.48,0,0,1-.19-.25l-2.45-8.07a.41.41,0,0,1,0-.31.34.34,0,0,1,.24-.19ZM231.22,346a.41.41,0,0,1,.31,0,.39.39,0,0,1,.2.25l.28.92a.42.42,0,0,1,0,.31.39.39,0,0,1-.25.2l-1.07.32a.37.37,0,0,1-.31,0,.45.45,0,0,1-.2-.25l-.28-.92a.41.41,0,0,1,0-.31.37.37,0,0,1,.25-.2Z"/><path class="cls-2" d="M219.66,333.83a5.4,5.4,0,0,1,2-.18,3.41,3.41,0,0,1,1.36.46,3,3,0,0,1,.83.72,2.38,2.38,0,0,1,.37.65.33.33,0,0,1,0,.32.39.39,0,0,1-.25.19l-.83.21a.42.42,0,0,1-.27,0,.58.58,0,0,1-.25-.25,3.33,3.33,0,0,0-.46-.5,1.92,1.92,0,0,0-.77-.39,2.73,2.73,0,0,0-1.27.08,4,4,0,0,0-1.31.56,1.63,1.63,0,0,0-.64,1,3.32,3.32,0,0,0,.1,1.56l.3,1.18a3.38,3.38,0,0,1,.85-1.17,3.75,3.75,0,0,1,1.6-.78,3.89,3.89,0,0,1,1.74-.09,3.21,3.21,0,0,1,1.36.63,4.1,4.1,0,0,1,1,1.15,6.66,6.66,0,0,1,.65,1.49c.09.32.17.63.24.94a6.94,6.94,0,0,1,.15,1.62,4.31,4.31,0,0,1-.32,1.49,3.1,3.1,0,0,1-.89,1.21,3.91,3.91,0,0,1-1.57.76,3.66,3.66,0,0,1-1.82,0,3.78,3.78,0,0,1-1.35-.66l.19.74a.44.44,0,0,1,0,.32.41.41,0,0,1-.26.2l-.79.2a.4.4,0,0,1-.32-.05.38.38,0,0,1-.2-.26l-2.13-8.36a5.1,5.1,0,0,1-.13-2.14,3,3,0,0,1,.91-1.74A4.94,4.94,0,0,1,219.66,333.83Zm1.33,5.09a2.41,2.41,0,0,0-1.29.75,2.58,2.58,0,0,0-.52,1.2,3.47,3.47,0,0,0,0,1.29c0,.17.07.37.13.6s.12.43.17.59a3.61,3.61,0,0,0,.58,1.16,2.47,2.47,0,0,0,1,.8,2.33,2.33,0,0,0,1.49,0,2.28,2.28,0,0,0,1.28-.74,2.16,2.16,0,0,0,.48-1.2,4.92,4.92,0,0,0-.09-1.42c-.06-.3-.14-.61-.23-.91a5.1,5.1,0,0,0-.6-1.29,2.24,2.24,0,0,0-1-.83A2.37,2.37,0,0,0,221,338.92Z"/><path class="cls-2" d="M210.5,339.69a3.91,3.91,0,0,1,3.08.57,4.65,4.65,0,0,1,1.74,2.81,5.91,5.91,0,0,1,.13.58,4.51,4.51,0,0,1,.09.59,5.17,5.17,0,0,1-.16,2.28,3.64,3.64,0,0,1-1.12,1.71,4.13,4.13,0,0,1-2,.9A4.27,4.27,0,0,1,210,349a3.67,3.67,0,0,1-1.68-1.33,5.85,5.85,0,0,1-.92-2.32l-.06-.3a.35.35,0,0,1,.06-.32.41.41,0,0,1,.27-.16l6-1.14a.56.56,0,0,1,0-.07.51.51,0,0,1,0-.09,3.61,3.61,0,0,0-.57-1.28,2.53,2.53,0,0,0-1-.85,2.06,2.06,0,0,0-1.33-.14,2.54,2.54,0,0,0-1,.39,2.5,2.5,0,0,0-.6.55,3.19,3.19,0,0,0-.29.43.82.82,0,0,1-.19.31.58.58,0,0,1-.27.1l-.84.16a.46.46,0,0,1-.31,0,.32.32,0,0,1-.14-.25,1.35,1.35,0,0,1,.16-.69,3.22,3.22,0,0,1,.61-.89,4.22,4.22,0,0,1,1.07-.83A5.5,5.5,0,0,1,210.5,339.69Zm3.4,4.93-4.79.91v.05a3.34,3.34,0,0,0,.55,1.35,2.37,2.37,0,0,0,1,.81,2.29,2.29,0,0,0,1.36.11,2.21,2.21,0,0,0,1.21-.6,2.36,2.36,0,0,0,.63-1.12,3.36,3.36,0,0,0,0-1.45Z"/><path class="cls-2" d="M204.13,341a.38.38,0,0,1,.31.08.36.36,0,0,1,.15.27l1,8.37a.41.41,0,0,1-.08.3.37.37,0,0,1-.28.15l-.82.11a.47.47,0,0,1-.31-.08.37.37,0,0,1-.15-.28l-.1-.78a3.57,3.57,0,0,1-1,1.13,3.76,3.76,0,0,1-1.74.6,3.6,3.6,0,0,1-2-.26,3.17,3.17,0,0,1-1.38-1.24,4.92,4.92,0,0,1-.67-2l-.62-5a.46.46,0,0,1,.07-.31.4.4,0,0,1,.27-.15l.88-.11a.42.42,0,0,1,.31.08.45.45,0,0,1,.15.28l.61,4.88a2.87,2.87,0,0,0,.84,1.86,2.23,2.23,0,0,0,1.85.47,2.31,2.31,0,0,0,1.67-.91,2.75,2.75,0,0,0,.42-2l-.61-4.88a.38.38,0,0,1,.08-.31.34.34,0,0,1,.27-.15Z"/><path class="cls-2" d="M184.93,339a.39.39,0,0,1,.3.1.38.38,0,0,1,.12.29l.53,18.81a.39.39,0,0,1-.11.29.41.41,0,0,1-.29.13l-.69,0a.44.44,0,0,1-.3-.11.38.38,0,0,1-.12-.29l-.53-18.8a.4.4,0,0,1,.11-.3.41.41,0,0,1,.29-.13Z"/><path class="cls-2" d="M163.73,342a.43.43,0,0,1,.29.15.46.46,0,0,1,.07.31L162.65,354a.42.42,0,0,1-.14.29.38.38,0,0,1-.32.08l-4-.5a6.65,6.65,0,0,1-2.86-.91,3.46,3.46,0,0,1-1.43-1.82,6.22,6.22,0,0,1-.2-2.68c.06-.53.11-1,.16-1.4s.11-.86.19-1.37a6.83,6.83,0,0,1,.87-2.63,3.28,3.28,0,0,1,1.79-1.39,6.8,6.8,0,0,1,2.93-.16Zm-1.51,1.34-2.68-.34a4.79,4.79,0,0,0-2,.09,2.12,2.12,0,0,0-1.19.95,5.13,5.13,0,0,0-.58,1.91c-.07.35-.12.66-.16.93l-.09.79c0,.27-.06.57-.08.91a3.72,3.72,0,0,0,.49,2.64,3.51,3.51,0,0,0,2.51,1.14l2.6.33Z"/><path class="cls-2" d="M149.91,339.77a3.67,3.67,0,0,1,1.52.66,3,3,0,0,1,1,1.16,2.21,2.21,0,0,1,.18,1.43,2.26,2.26,0,0,1-1.35,1.73,5.6,5.6,0,0,1-2.73.46l-2.67-.14-.1.51A1.78,1.78,0,0,0,146,347a2.24,2.24,0,0,0,1.47.77,2.32,2.32,0,0,0,1.33-.07,1.71,1.71,0,0,0,.82-.67.38.38,0,0,1,.42-.19l.79.15a.35.35,0,0,1,.26.17.4.4,0,0,1,0,.29,1.66,1.66,0,0,1-.33.6,2.72,2.72,0,0,1-.76.63,3.84,3.84,0,0,1-1.2.42,4.64,4.64,0,0,1-1.64-.06,5,5,0,0,1-1.71-.61,2.9,2.9,0,0,1-1-.94,2.67,2.67,0,0,1-.39-1.15,3.71,3.71,0,0,1,0-1.2l1.09-5.66a.39.39,0,0,1,.17-.26.41.41,0,0,1,.31-.06l.8.15a.38.38,0,0,1,.33.48l-.15.75a3.58,3.58,0,0,1,.73-.5,3.48,3.48,0,0,1,1.06-.32A4.6,4.6,0,0,1,149.91,339.77Zm-.62,1.24a3,3,0,0,0-1.37.05,2.23,2.23,0,0,0-1.11.78,3.52,3.52,0,0,0-.66,1.55l-.09.49,2.08.1a4.83,4.83,0,0,0,2-.23,1.23,1.23,0,0,0,.83-.92,1.2,1.2,0,0,0-.13-.86,1.66,1.66,0,0,0-.64-.62A2.61,2.61,0,0,0,149.29,341Z"/><path class="cls-2" d="M142.5,338.39a.44.44,0,0,1,.26.18.41.41,0,0,1,0,.31l-2.73,11.49a.44.44,0,0,1-.18.26.41.41,0,0,1-.31,0l-.82-.19a.39.39,0,0,1-.26-.18.38.38,0,0,1,0-.31l2.73-11.49a.44.44,0,0,1,.17-.26.39.39,0,0,1,.32,0Z"/><path class="cls-2" d="M138.39,337.37a.41.41,0,0,1,.26.18.44.44,0,0,1,0,.32l-3,11.41a.37.37,0,0,1-.19.25.37.37,0,0,1-.31,0l-.81-.22a.37.37,0,0,1-.26-.19.41.41,0,0,1,0-.31l3-11.41a.39.39,0,0,1,.5-.29Z"/><path class="cls-2" d="M132.33,335.47a3.53,3.53,0,0,1,1.44.82,3.14,3.14,0,0,1,.84,1.26,2.4,2.4,0,0,1-1.52,3,5.66,5.66,0,0,1-2.76.15l-2.64-.44-.16.5a1.78,1.78,0,0,0,.07,1.41,2.22,2.22,0,0,0,1.38.94,2.35,2.35,0,0,0,1.32.08,1.71,1.71,0,0,0,.9-.58.39.39,0,0,1,.44-.15l.76.24a.4.4,0,0,1,.25.2.48.48,0,0,1,0,.29,1.7,1.7,0,0,1-.39.57,2.71,2.71,0,0,1-.83.54,3.71,3.71,0,0,1-1.24.28,4.6,4.6,0,0,1-1.63-.24,5.06,5.06,0,0,1-1.63-.8,2.86,2.86,0,0,1-.87-1,2.72,2.72,0,0,1-.27-1.18,4,4,0,0,1,.18-1.2l1.71-5.5a.42.42,0,0,1,.52-.27l.78.25a.37.37,0,0,1,.25.2.41.41,0,0,1,0,.31l-.23.73a3.17,3.17,0,0,1,.78-.42,3.47,3.47,0,0,1,1.09-.2A4.49,4.49,0,0,1,132.33,335.47Zm-.75,1.16a2.79,2.79,0,0,0-1.37-.1,2.22,2.22,0,0,0-1.19.64,3.57,3.57,0,0,0-.83,1.47l-.14.48,2,.33a4.88,4.88,0,0,0,2,0,1.21,1.21,0,0,0,.92-.82,1.18,1.18,0,0,0,0-.87,1.71,1.71,0,0,0-.57-.69A2.57,2.57,0,0,0,131.58,336.63Z"/><path class="cls-2" d="M122.64,332.17a5.1,5.1,0,0,1,1.51.83,3.81,3.81,0,0,1,.87,1,3,3,0,0,1,.38.9,1.47,1.47,0,0,1,0,.62.3.3,0,0,1-.22.24.54.54,0,0,1-.31,0l-.73-.28a.35.35,0,0,1-.15-.08.52.52,0,0,1-.1-.2c-.09-.21-.19-.43-.31-.65a2.44,2.44,0,0,0-.51-.63,3.53,3.53,0,0,0-2.44-.72,1.12,1.12,0,0,0-.91.75,1.09,1.09,0,0,0,0,.75,2,2,0,0,0,.63.75,14.93,14.93,0,0,0,1.42,1,6.54,6.54,0,0,1,1.37,1.17,2.27,2.27,0,0,1,.52,1.13,2.4,2.4,0,0,1-.15,1.17,2.37,2.37,0,0,1-.82,1.05,2.8,2.8,0,0,1-1.42.53,4,4,0,0,1-1.91-.3,4.5,4.5,0,0,1-1.4-.77,3.54,3.54,0,0,1-.81-.92,2.78,2.78,0,0,1-.36-.87,1.28,1.28,0,0,1,0-.61.33.33,0,0,1,.2-.24.47.47,0,0,1,.31,0l.7.27a.32.32,0,0,1,.17.12,1,1,0,0,1,.1.17,4.35,4.35,0,0,0,.23.58,1.66,1.66,0,0,0,.45.57,2.76,2.76,0,0,0,.88.5,2,2,0,0,0,1.38.12,1.16,1.16,0,0,0,.75-.73,1,1,0,0,0,0-.63,1.69,1.69,0,0,0-.53-.71,11.36,11.36,0,0,0-1.37-1,6.12,6.12,0,0,1-1.51-1.23,2.53,2.53,0,0,1-.58-1.19,2.5,2.5,0,0,1,.15-1.22,2.39,2.39,0,0,1,.89-1.12,2.93,2.93,0,0,1,1.55-.48A5.11,5.11,0,0,1,122.64,332.17Z"/><path class="cls-2" d="M114,327.36a.26.26,0,0,1,.16.19.36.36,0,0,1,0,.26L112.65,330a.75.75,0,0,1-.29.27.4.4,0,0,1-.38,0l-1.08-.49a.31.31,0,0,1-.15-.17.28.28,0,0,1,0-.22.58.58,0,0,1,.18-.23l1.85-1.84a.85.85,0,0,1,.29-.19.44.44,0,0,1,.35,0Z"/><path class="cls-2" d="M103,323.45a.36.36,0,0,1,.21.24.38.38,0,0,1,0,.31l-5,9.2,3,1.62a.42.42,0,0,1,.2.24.4.4,0,0,1,0,.32L101,336a.41.41,0,0,1-.25.22.42.42,0,0,1-.31,0l-7.55-4.08a.41.41,0,0,1-.21-.24.39.39,0,0,1,0-.33l.36-.66a.34.34,0,0,1,.24-.2.4.4,0,0,1,.33,0l3,1.62,5-9.2a.41.41,0,0,1,.24-.21.43.43,0,0,1,.33.05Z"/><path class="cls-2" d="M95.49,319a3.84,3.84,0,0,1,1.91,2.48,4.65,4.65,0,0,1-.58,3.25c-.07.14-.17.31-.3.52s-.23.37-.32.5a5.28,5.28,0,0,1-1.65,1.59,3.66,3.66,0,0,1-2,.52,4.28,4.28,0,0,1-2.07-.65,4.22,4.22,0,0,1-1.64-1.67,3.56,3.56,0,0,1-.35-2.1,5.63,5.63,0,0,1,.86-2.35l.16-.26a.38.38,0,0,1,.25-.2.44.44,0,0,1,.31.06l5.26,3.2a.15.15,0,0,1,0-.06l0-.08a3.84,3.84,0,0,0,.43-1.33,2.49,2.49,0,0,0-.17-1.3,2.09,2.09,0,0,0-.89-1,2.44,2.44,0,0,0-1-.38,2.77,2.77,0,0,0-.82,0,2.13,2.13,0,0,0-.49.13.92.92,0,0,1-.36.1.6.6,0,0,1-.27-.11l-.73-.44a.49.49,0,0,1-.2-.23.31.31,0,0,1,.06-.29,1.46,1.46,0,0,1,.58-.41,3.68,3.68,0,0,1,1.05-.25,4.29,4.29,0,0,1,1.35.11A4.77,4.77,0,0,1,95.49,319Zm-.77,5.94-4.17-2.53,0,0a3.29,3.29,0,0,0-.49,1.37,2.32,2.32,0,0,0,.21,1.28,2.4,2.4,0,0,0,.93,1,2.35,2.35,0,0,0,1.31.36,2.28,2.28,0,0,0,1.22-.41,3.39,3.39,0,0,0,1-1.07Z"/><path class="cls-2" d="M90.74,316.23a.37.37,0,0,1,.09.52.38.38,0,0,1-.09.09.67.67,0,0,1-.19.1l-4.84,1.57.22,4.79a1,1,0,0,1,0,.2.26.26,0,0,1-.06.13.33.33,0,0,1-.24.16.36.36,0,0,1-.28-.06l-.74-.51a.43.43,0,0,1-.19-.25,1.21,1.21,0,0,1,0-.25l-.21-3.88L80.48,320l-.25.07a.4.4,0,0,1-.3-.08l-.72-.5a.41.41,0,0,1-.16-.23.4.4,0,0,1,.07-.28.35.35,0,0,1,.1-.11.74.74,0,0,1,.18-.09L84,317.29l-.28-5.05a1,1,0,0,1,0-.2.26.26,0,0,1,.06-.13.33.33,0,0,1,.24-.16.36.36,0,0,1,.28.06l.77.53a.47.47,0,0,1,.19.24,1.18,1.18,0,0,1,0,.25l.22,4.1,3.91-1.26.23,0a.39.39,0,0,1,.3.08Z"/><path class="cls-2" d="M80.81,308.92a3.46,3.46,0,0,1,1.06,1.27,3.17,3.17,0,0,1,.34,1.48,2.23,2.23,0,0,1-.49,1.35,2.3,2.3,0,0,1-2,.94,5.79,5.79,0,0,1-2.64-.84l-2.32-1.33-.32.41a1.77,1.77,0,0,0-.43,1.35,2.2,2.2,0,0,0,1,1.35,2.27,2.27,0,0,0,1.21.54,1.77,1.77,0,0,0,1-.22.36.36,0,0,1,.45,0l.64.49a.39.39,0,0,1,.16.27.44.44,0,0,1-.1.28,1.44,1.44,0,0,1-.56.39,2.72,2.72,0,0,1-1,.21,3.38,3.38,0,0,1-1.25-.17,4.33,4.33,0,0,1-1.44-.79,5.24,5.24,0,0,1-1.25-1.32,2.78,2.78,0,0,1-.29-2.49,4.17,4.17,0,0,1,.59-1.05l3.53-4.55a.43.43,0,0,1,.27-.16.41.41,0,0,1,.31.09l.64.5a.37.37,0,0,1,.07.57l-.46.61a2.86,2.86,0,0,1,.87-.12,3.43,3.43,0,0,1,1.09.19A4.52,4.52,0,0,1,80.81,308.92Zm-1.11.82a2.8,2.8,0,0,0-1.24-.57,2.13,2.13,0,0,0-1.35.18,3.55,3.55,0,0,0-1.29,1.09l-.3.39,1.81,1a4.8,4.8,0,0,0,1.87.7,1.24,1.24,0,0,0,1.15-.44,1.19,1.19,0,0,0,.28-.84,1.8,1.8,0,0,0-.29-.84A2.84,2.84,0,0,0,79.7,309.74Z"/><path class="cls-2" d="M72.9,302.43A5.4,5.4,0,0,1,74,303.74,4,4,0,0,1,74.5,305a3.24,3.24,0,0,1,0,1,1.45,1.45,0,0,1-.19.59.34.34,0,0,1-.3.15.5.5,0,0,1-.28-.11l-.59-.52a.42.42,0,0,1-.11-.13.54.54,0,0,1,0-.22A4.56,4.56,0,0,0,73,305a2.15,2.15,0,0,0-.26-.76,2.71,2.71,0,0,0-.68-.81,2.8,2.8,0,0,0-1.35-.72,1.15,1.15,0,0,0-1.12.38,1,1,0,0,0-.28.7,1.94,1.94,0,0,0,.33.92,14,14,0,0,0,1,1.44,6,6,0,0,1,.87,1.57,2.26,2.26,0,0,1,.1,1.24,2.41,2.41,0,0,1-.56,1,2.23,2.23,0,0,1-1.13.7,2.89,2.89,0,0,1-1.52,0,4.12,4.12,0,0,1-1.68-.95,4.51,4.51,0,0,1-1-1.22,3.47,3.47,0,0,1-.44-1.14,2.53,2.53,0,0,1,0-.94,1.35,1.35,0,0,1,.19-.58.32.32,0,0,1,.28-.15.38.38,0,0,1,.29.1l.56.49a.38.38,0,0,1,.12.17.64.64,0,0,1,0,.2,4.34,4.34,0,0,0,0,.62,2.09,2.09,0,0,0,.22.7,2.92,2.92,0,0,0,.66.77,2,2,0,0,0,1.25.59,1.17,1.17,0,0,0,.95-.41,1,1,0,0,0,.25-.59,1.65,1.65,0,0,0-.24-.85,14.72,14.72,0,0,0-.93-1.42,6.05,6.05,0,0,1-1-1.69,2.46,2.46,0,0,1-.13-1.31,2.55,2.55,0,0,1,.57-1.09,2.37,2.37,0,0,1,1.23-.74,2.9,2.9,0,0,1,1.61.1A5.23,5.23,0,0,1,72.9,302.43Z"/><path class="cls-2" d="M56.5,280.47a.43.43,0,0,1,.09.3.41.41,0,0,1-.15.28L41.86,292.93a.4.4,0,0,1-.3.1.43.43,0,0,1-.28-.16l-.44-.54a.41.41,0,0,1-.09-.3.39.39,0,0,1,.15-.27l14.58-11.88a.38.38,0,0,1,.3-.1.41.41,0,0,1,.28.15Z"/><path class="cls-2" d="M41.49,265.55a5.56,5.56,0,0,1,.92,2.62,3.91,3.91,0,0,1-.57,2.27A6,6,0,0,1,40,272.29c-.4.27-.84.55-1.31.84l-1.37.84a6.17,6.17,0,0,1-2.46.82,3.94,3.94,0,0,1-2.3-.49,5.34,5.34,0,0,1-1.94-2,6.2,6.2,0,0,1-.86-2,4.53,4.53,0,0,1,0-1.79A3.88,3.88,0,0,1,31.36,266a.27.27,0,0,1,.27-.06.43.43,0,0,1,.24.18l.52.83a.47.47,0,0,1,.07.28.53.53,0,0,1-.18.31,2.82,2.82,0,0,0-1,2,3.86,3.86,0,0,0,.66,2A3.08,3.08,0,0,0,33.8,273a3.65,3.65,0,0,0,2.67-.6c.85-.48,1.69-1,2.54-1.58a3.66,3.66,0,0,0,1.71-2.13,3.06,3.06,0,0,0-.51-2.35,3.78,3.78,0,0,0-1.53-1.48,2.79,2.79,0,0,0-2.21.05.51.51,0,0,1-.36,0,.39.39,0,0,1-.22-.18l-.52-.83a.43.43,0,0,1-.06-.29.3.3,0,0,1,.18-.23,4,4,0,0,1,3-.34,4.36,4.36,0,0,1,1.58.82A6.37,6.37,0,0,1,41.49,265.55Z"/><path class="cls-2" d="M37.55,259.32a.42.42,0,0,1,0,.31.37.37,0,0,1-.2.24L27,265.42a.4.4,0,0,1-.32,0,.42.42,0,0,1-.24-.2l-.41-.79a.34.34,0,0,1,0-.32.39.39,0,0,1,.21-.23l3.65-2A3.44,3.44,0,0,1,27.24,260a3.59,3.59,0,0,1-.47-2,3.17,3.17,0,0,1,.66-1.75,5.12,5.12,0,0,1,1.65-1.35l4.42-2.35a.4.4,0,0,1,.56.17l.41.78a.39.39,0,0,1-.17.56L30,256.41a2.88,2.88,0,0,0-1.44,1.45,2.23,2.23,0,0,0,.22,1.9A2.35,2.35,0,0,0,30.19,261a2.73,2.73,0,0,0,2-.32l4.35-2.31a.38.38,0,0,1,.31-.05.41.41,0,0,1,.24.21Z"/><path class="cls-2" d="M22.82,254.67a.4.4,0,0,1,0,.32.37.37,0,0,1-.21.23l-.87.41a.37.37,0,0,1-.31,0,.37.37,0,0,1-.23-.21l-.48-1a.4.4,0,0,1,0-.32.37.37,0,0,1,.21-.23l.87-.41a.37.37,0,0,1,.31,0,.37.37,0,0,1,.23.21Zm9.85-4.83a.38.38,0,0,1,0,.31.37.37,0,0,1-.21.23L24.86,254a.37.37,0,0,1-.31,0,.43.43,0,0,1-.23-.21L24,253a.37.37,0,0,1,0-.31.4.4,0,0,1,.22-.22l7.61-3.62a.42.42,0,0,1,.31,0,.35.35,0,0,1,.22.21Z"/><path class="cls-2" d="M29.75,242.92a4.53,4.53,0,0,1,.4,2.19,3.39,3.39,0,0,1-.74,1.85,4.69,4.69,0,0,1-1.82,1.35l-.64.3-.67.26a4.77,4.77,0,0,1-2.23.36,3.45,3.45,0,0,1-1.84-.75,4.58,4.58,0,0,1-1.3-1.82,4.92,4.92,0,0,1-.43-1.74,3.86,3.86,0,0,1,.2-1.4,3.19,3.19,0,0,1,.6-1,2.63,2.63,0,0,1,.8-.62.29.29,0,0,1,.3,0,.49.49,0,0,1,.22.23l.33.79a.36.36,0,0,1,0,.28.77.77,0,0,1-.18.27A2.4,2.4,0,0,0,22,244.7a2.46,2.46,0,0,0,.21,1.4,2.35,2.35,0,0,0,1.28,1.34,3.06,3.06,0,0,0,2.23-.16c.4-.16.78-.32,1.14-.49a3,3,0,0,0,1.68-1.49,2.39,2.39,0,0,0-.08-1.85,2.44,2.44,0,0,0-.86-1.12,2.33,2.33,0,0,0-1.47-.33.85.85,0,0,1-.32-.05.41.41,0,0,1-.18-.22l-.33-.78a.4.4,0,0,1,0-.32.28.28,0,0,1,.22-.21,2.33,2.33,0,0,1,.76-.15,2.73,2.73,0,0,1,.91.11,3.21,3.21,0,0,1,.95.43,3.84,3.84,0,0,1,.9.83A5.38,5.38,0,0,1,29.75,242.92Z"/><path class="cls-2" d="M26.66,235.05a3.61,3.61,0,0,1,.21,1.64,3.11,3.11,0,0,1-.51,1.43,2.38,2.38,0,0,1-3.32.59,5.79,5.79,0,0,1-1.78-2.12L20,234.22l-.49.17a1.75,1.75,0,0,0-1.09.91,2.16,2.16,0,0,0,.08,1.66,2.29,2.29,0,0,0,.73,1.1,1.67,1.67,0,0,0,1,.37.39.39,0,0,1,.38.27l.26.75a.36.36,0,0,1,0,.32.4.4,0,0,1-.22.18,1.51,1.51,0,0,1-.69,0,2.79,2.79,0,0,1-.93-.34,3.56,3.56,0,0,1-1-.82,4.39,4.39,0,0,1-.79-1.45,5,5,0,0,1-.34-1.78,2.87,2.87,0,0,1,.31-1.33,3,3,0,0,1,.78-.92,3.76,3.76,0,0,1,1.06-.57l5.43-1.93a.4.4,0,0,1,.32,0,.35.35,0,0,1,.2.24l.28.77a.39.39,0,0,1,0,.32.44.44,0,0,1-.24.2l-.72.26a3,3,0,0,1,.8.37,3.35,3.35,0,0,1,.82.75A4.31,4.31,0,0,1,26.66,235.05Zm-1.38.09a2.82,2.82,0,0,0-.74-1.15,2.2,2.2,0,0,0-1.23-.57,3.58,3.58,0,0,0-1.68.22l-.46.17,1,1.84a4.64,4.64,0,0,0,1.2,1.6,1.23,1.23,0,0,0,1.89-.31,1.74,1.74,0,0,0,.21-.86A2.69,2.69,0,0,0,25.28,235.14Z"/><path class="cls-2" d="M26.91,223.72a5.37,5.37,0,0,1,.24,2,3.46,3.46,0,0,1-.41,1.37,2.92,2.92,0,0,1-.7.85,2.63,2.63,0,0,1-.64.4.36.36,0,0,1-.32,0,.44.44,0,0,1-.2-.25l-.24-.82a.42.42,0,0,1,0-.27c0-.09.11-.17.24-.26a3.47,3.47,0,0,0,.48-.47,1.66,1.66,0,0,0,.37-.79,2.75,2.75,0,0,0-.11-1.26,4.08,4.08,0,0,0-.6-1.29,1.62,1.62,0,0,0-1-.61,3.27,3.27,0,0,0-1.56.14l-1.16.33a3.41,3.41,0,0,1,1.18.82,3.76,3.76,0,0,1,.84,1.58,3.93,3.93,0,0,1,.13,1.74,3.16,3.16,0,0,1-.58,1.38,4.23,4.23,0,0,1-1.12,1,7.08,7.08,0,0,1-1.47.69c-.31.1-.63.19-.94.27a6.87,6.87,0,0,1-1.61.19,4.16,4.16,0,0,1-1.5-.27,3.16,3.16,0,0,1-1.24-.86,3.81,3.81,0,0,1-.8-1.54,3.46,3.46,0,0,1-.1-1.81,3.73,3.73,0,0,1,.61-1.37l-.73.21a.47.47,0,0,1-.33,0,.39.39,0,0,1-.2-.25l-.22-.78a.47.47,0,0,1,0-.33.43.43,0,0,1,.26-.2l8.29-2.38a5.36,5.36,0,0,1,2.14-.2,3.15,3.15,0,0,1,1.77.86A5,5,0,0,1,26.91,223.72Zm-5.05,1.49a2.29,2.29,0,0,0-.79-1.26,2.35,2.35,0,0,0-1.21-.49,3.46,3.46,0,0,0-1.29.09,5.69,5.69,0,0,0-.59.15c-.24.06-.43.13-.59.18a3.75,3.75,0,0,0-1.14.62,2.52,2.52,0,0,0-.77,1.05,2.3,2.3,0,0,0,0,1.49,2.33,2.33,0,0,0,.77,1.26,2.29,2.29,0,0,0,1.22.44,4.65,4.65,0,0,0,1.42-.13c.3-.07.6-.16.9-.26a4.73,4.73,0,0,0,1.27-.64,2.27,2.27,0,0,0,.8-1A2.34,2.34,0,0,0,21.86,225.21Z"/><path class="cls-2" d="M20.76,214.65a4.63,4.63,0,0,1,0,2.32,3.48,3.48,0,0,1-1.1,1.66,4.82,4.82,0,0,1-1.93,1,7,7,0,0,1-.75.18l-.74.15a4.9,4.9,0,0,1-2.17-.08,3.56,3.56,0,0,1-1.69-1.06,5.15,5.15,0,0,1-1-4.37,3.56,3.56,0,0,1,1.09-1.67,4.74,4.74,0,0,1,1.94-1l.73-.18.76-.15a5,5,0,0,1,2.15.07,3.45,3.45,0,0,1,1.7,1.05A4.63,4.63,0,0,1,20.76,214.65Zm-1.34.3a2.31,2.31,0,0,0-1.06-1.57,3.07,3.07,0,0,0-2.16-.25,6.5,6.5,0,0,0-.67.12l-.65.17A3,3,0,0,0,13,214.55a2.26,2.26,0,0,0-.31,1.87A2.35,2.35,0,0,0,13.78,218a3,3,0,0,0,2.16.24c.18,0,.4-.07.66-.12l.66-.17a3,3,0,0,0,1.85-1.12A2.29,2.29,0,0,0,19.42,215Z"/><path class="cls-2" d="M20,204.25a.28.28,0,0,1-.07.24.38.38,0,0,1-.26.1l-2.57,0a.89.89,0,0,1-.38-.1.38.38,0,0,1-.2-.32L16.33,203a.3.3,0,0,1,.06-.22.36.36,0,0,1,.2-.11.74.74,0,0,1,.29,0l2.55.56a.75.75,0,0,1,.31.15.45.45,0,0,1,.17.3Z"/><path class="cls-2" d="M17.52,195.13a.4.4,0,0,1-.09.31.39.39,0,0,1-.28.13L5.57,196.64a.43.43,0,0,1-.3-.08.39.39,0,0,1-.15-.29L5,195.33a.39.39,0,0,1,.09-.3.37.37,0,0,1,.28-.14L17,193.82a.39.39,0,0,1,.44.37Z"/><path class="cls-2" d="M17.15,190.59a.36.36,0,0,1-.1.3.37.37,0,0,1-.28.14L5,191.79a.39.39,0,0,1-.3-.1.4.4,0,0,1-.14-.28l0-.84a.37.37,0,0,1,.1-.31.43.43,0,0,1,.28-.12l11.78-.76a.39.39,0,0,1,.44.38Z"/><path class="cls-2" d="M16.92,186.36a.39.39,0,0,1-.1.3.38.38,0,0,1-.29.12l-11.8.46a.44.44,0,0,1-.3-.1.38.38,0,0,1-.12-.29l0-.84a.39.39,0,0,1,.4-.42l11.79-.46a.49.49,0,0,1,.3.09.42.42,0,0,1,.13.3Z"/><path class="cls-2" d="M5.83,182.42a.36.36,0,0,1-.11.3.37.37,0,0,1-.29.12h-1a.38.38,0,0,1-.29-.11.37.37,0,0,1-.12-.29l0-1.12a.36.36,0,0,1,.11-.29.38.38,0,0,1,.29-.12l1,0a.4.4,0,0,1,.3.11.48.48,0,0,1,.12.29Zm11-.32a.4.4,0,0,1-.11.3.38.38,0,0,1-.29.12L8,182.65a.34.34,0,0,1-.29-.11.37.37,0,0,1-.12-.29l0-.85a.4.4,0,0,1,.11-.29A.44.44,0,0,1,8,181l8.42-.14a.44.44,0,0,1,.3.11.38.38,0,0,1,.12.28Z"/><path class="cls-2" d="M16.75,178a.41.41,0,0,1-.13.29.39.39,0,0,1-.29.11L7.9,178.1a.43.43,0,0,1-.29-.13.39.39,0,0,1-.1-.3l0-.83a.41.41,0,0,1,.13-.29.44.44,0,0,1,.29-.11l.79,0a3.52,3.52,0,0,1-1-1.2,3.76,3.76,0,0,1-.33-1.81,3.56,3.56,0,0,1,.57-2,3.08,3.08,0,0,1,1.44-1.17,5,5,0,0,1,2.1-.35l5,.16a.37.37,0,0,1,.29.12.36.36,0,0,1,.11.28l0,.89a.37.37,0,0,1-.12.29.4.4,0,0,1-.3.11l-4.92-.16a2.92,2.92,0,0,0-2,.55A2.23,2.23,0,0,0,8.88,174a2.35,2.35,0,0,0,.65,1.79,2.75,2.75,0,0,0,1.93.73l4.92.15a.43.43,0,0,1,.29.13.39.39,0,0,1,.1.3Z"/><path class="cls-2" d="M17.68,164a4.45,4.45,0,0,1-.72,2.2,3.54,3.54,0,0,1-1.56,1.25,4.88,4.88,0,0,1-2.13.33l-.77-.05-.75-.09a4.83,4.83,0,0,1-2-.74,3.51,3.51,0,0,1-1.28-1.52,5.15,5.15,0,0,1,.42-4.46,3.53,3.53,0,0,1,1.55-1.26,4.74,4.74,0,0,1,2.13-.34c.19,0,.45,0,.76,0l.77.09a4.93,4.93,0,0,1,2,.73,3.45,3.45,0,0,1,1.29,1.51A4.43,4.43,0,0,1,17.68,164Zm-1.36-.13a2.31,2.31,0,0,0-.53-1.82,3.12,3.12,0,0,0-2-.9l-.67-.08-.68-.05a3.15,3.15,0,0,0-2.11.52,2.57,2.57,0,0,0-.33,3.51,3,3,0,0,0,2,.9l.67.08c.27,0,.5,0,.68,0a3.06,3.06,0,0,0,2.11-.5A2.37,2.37,0,0,0,16.32,163.89Z"/><path class="cls-2" d="M7.38,156a.34.34,0,0,1-.15.27.42.42,0,0,1-.31.08l-1-.13a.38.38,0,0,1-.27-.16.42.42,0,0,1-.08-.31l.16-1.11a.38.38,0,0,1,.46-.34l1,.13a.37.37,0,0,1,.27.15.42.42,0,0,1,.08.31Zm10.89,1.36a.42.42,0,0,1-.16.28.38.38,0,0,1-.3.07l-8.35-1.16a.34.34,0,0,1-.27-.15.38.38,0,0,1-.08-.31l.12-.84a.37.37,0,0,1,.15-.27.41.41,0,0,1,.31-.06L18,156.06a.45.45,0,0,1,.28.15.37.37,0,0,1,.08.29Z"/><path class="cls-2" d="M19.53,150.5a5.26,5.26,0,0,1-.55,1.64,3.8,3.8,0,0,1-.8,1,3,3,0,0,1-.81.53,1.38,1.38,0,0,1-.61.13.31.31,0,0,1-.27-.17.49.49,0,0,1-.06-.3l.14-.77a.3.3,0,0,1,.06-.16.41.41,0,0,1,.18-.14l.58-.42a2.48,2.48,0,0,0,.52-.62,2.79,2.79,0,0,0,.34-1,2.86,2.86,0,0,0-.07-1.53,1.13,1.13,0,0,0-.9-.76,1.09,1.09,0,0,0-.75.11,2.11,2.11,0,0,0-.62.76,16.39,16.39,0,0,0-.74,1.57,6.12,6.12,0,0,1-.9,1.56,2.32,2.32,0,0,1-1,.72,2.58,2.58,0,0,1-1.18.06,2.36,2.36,0,0,1-1.18-.61,2.92,2.92,0,0,1-.79-1.31,4.24,4.24,0,0,1,0-1.93,4.84,4.84,0,0,1,.51-1.52,3.62,3.62,0,0,1,.76-1,2.91,2.91,0,0,1,.79-.51,1.44,1.44,0,0,1,.6-.13.32.32,0,0,1,.27.16.39.39,0,0,1,.06.3l-.13.73a.31.31,0,0,1-.09.2l-.15.12a4.53,4.53,0,0,0-.53.33,1.75,1.75,0,0,0-.48.55,2.56,2.56,0,0,0-.33,1,2.09,2.09,0,0,0,.13,1.38,1.22,1.22,0,0,0,.85.6A1,1,0,0,0,13,151a1.76,1.76,0,0,0,.61-.65,14,14,0,0,0,.74-1.53,5.81,5.81,0,0,1,.94-1.71,2.51,2.51,0,0,1,1.06-.79,2.48,2.48,0,0,1,1.22-.07,2.32,2.32,0,0,1,1.27.67,2.92,2.92,0,0,1,.75,1.44A5.21,5.21,0,0,1,19.53,150.5Z"/><path class="cls-2" d="M27.33,133.1a.37.37,0,0,1-.2.24.41.41,0,0,1-.31,0l-18-5.51a.39.39,0,0,1-.24-.19.39.39,0,0,1,0-.32l.2-.66a.42.42,0,0,1,.2-.25.37.37,0,0,1,.31,0l18,5.5a.39.39,0,0,1,.25.2.37.37,0,0,1,0,.31Z"/><path class="cls-2" d="M26.43,123.94a.4.4,0,0,1-.22.24.37.37,0,0,1-.31,0L15.08,120a.46.46,0,0,1-.25-.22.39.39,0,0,1,0-.32l1.77-4.54A4.65,4.65,0,0,1,17.8,113a2.82,2.82,0,0,1,1.55-.73,3.54,3.54,0,0,1,1.71.23,3.18,3.18,0,0,1,1.08.68,2.66,2.66,0,0,1,.57.87,2.93,2.93,0,0,1,.22.83,3.29,3.29,0,0,1,1.48-.75,3.14,3.14,0,0,1,1.92.16,3.75,3.75,0,0,1,1.51,1.07,3.25,3.25,0,0,1,.74,1.71,4.41,4.41,0,0,1-.34,2.21Zm-6.21-3.85,1.19-3a2.57,2.57,0,0,0,.14-1.8,1.84,1.84,0,0,0-1.12-1.06,1.69,1.69,0,0,0-1.51,0,2.67,2.67,0,0,0-1.07,1.43l-1.19,3Zm5.35,2.09,1.25-3.2a2.38,2.38,0,0,0,.06-1.88A2.21,2.21,0,0,0,24,116a2.4,2.4,0,0,0-1.22,1.43l-1.25,3.2Z"/><path class="cls-2" d="M32.31,110.35a4.61,4.61,0,0,1-1.43,1.83,3.48,3.48,0,0,1-1.88.64,4.92,4.92,0,0,1-2.12-.4l-.71-.31-.68-.34a4.89,4.89,0,0,1-1.67-1.38,3.5,3.5,0,0,1-.69-1.87,4.52,4.52,0,0,1,.48-2.25A4.58,4.58,0,0,1,25,104.46a3.59,3.59,0,0,1,1.88-.66,5,5,0,0,1,2.13.4c.18.07.41.18.69.31s.52.25.7.34a5,5,0,0,1,1.66,1.37,3.49,3.49,0,0,1,.71,1.87A4.59,4.59,0,0,1,32.31,110.35Zm-1.24-.58a2.29,2.29,0,0,0,.11-1.89,3.11,3.11,0,0,0-1.56-1.52q-.24-.14-.6-.3c-.25-.12-.46-.21-.62-.27a3.08,3.08,0,0,0-2.16-.23,2.55,2.55,0,0,0-1.5,3.19,2.92,2.92,0,0,0,1.56,1.51,6.65,6.65,0,0,0,.6.3l.62.28a3,3,0,0,0,2.16.23A2.36,2.36,0,0,0,31.07,109.77Z"/><path class="cls-2" d="M36.55,101.94a5.17,5.17,0,0,1-1,1.38,3.88,3.88,0,0,1-1.08.73,2.89,2.89,0,0,1-.94.24,1.35,1.35,0,0,1-.62-.06.29.29,0,0,1-.2-.25.42.42,0,0,1,0-.3l.37-.69a.56.56,0,0,1,.1-.14.8.8,0,0,1,.22-.07c.22-.06.44-.13.68-.22a2.46,2.46,0,0,0,.7-.42,3.49,3.49,0,0,0,1-2.32,1.13,1.13,0,0,0-.62-1,1.06,1.06,0,0,0-.74-.13,2.15,2.15,0,0,0-.83.52,16.19,16.19,0,0,0-1.19,1.27,6,6,0,0,1-1.35,1.19,2.26,2.26,0,0,1-1.18.37,2.53,2.53,0,0,1-1.14-.31,2.36,2.36,0,0,1-.93-1,2.88,2.88,0,0,1-.34-1.49,4.1,4.1,0,0,1,.56-1.85,4.6,4.6,0,0,1,1-1.28,3.56,3.56,0,0,1,1-.68,3,3,0,0,1,.91-.24,1.47,1.47,0,0,1,.61.07.37.37,0,0,1,.21.23.41.41,0,0,1,0,.31l-.35.66a.36.36,0,0,1-.15.15.75.75,0,0,1-.18.07,3.76,3.76,0,0,0-.6.15,1.83,1.83,0,0,0-.64.37,2.66,2.66,0,0,0-.61.81,2.1,2.1,0,0,0-.31,1.35,1.2,1.2,0,0,0,.62.84,1.06,1.06,0,0,0,.63.11,1.7,1.7,0,0,0,.77-.42,14.25,14.25,0,0,0,1.19-1.22,5.87,5.87,0,0,1,1.43-1.33,2.26,2.26,0,0,1,2.44-.1,2.37,2.37,0,0,1,1,1,2.91,2.91,0,0,1,.26,1.59A5.3,5.3,0,0,1,36.55,101.94Z"/><path class="cls-2" d="M41.07,93.78A3.1,3.1,0,0,1,39.9,95a2.23,2.23,0,0,1-1.4.21,4.46,4.46,0,0,1-1.57-.62l-4-2.43-.72,1.19a.4.4,0,0,1-.25.19.39.39,0,0,1-.31-.06l-.52-.31a.4.4,0,0,1-.19-.25.38.38,0,0,1,.05-.31l.72-1.19-2.54-1.54A.4.4,0,0,1,29,89.6a.39.39,0,0,1,.06-.31l.43-.71a.37.37,0,0,1,.25-.19.38.38,0,0,1,.31,0L32.56,90l1.14-1.89A.43.43,0,0,1,34,87.9a.39.39,0,0,1,.31.06l.52.31a.37.37,0,0,1,.19.25.38.38,0,0,1,0,.31l-1.14,1.89,3.9,2.36a2.54,2.54,0,0,0,1.28.44,1.06,1.06,0,0,0,.93-.61l.56-.93a.41.41,0,0,1,.26-.19.39.39,0,0,1,.31,0l.54.33a.39.39,0,0,1,.19.25.38.38,0,0,1,0,.31Z"/><path class="cls-2" d="M45,88a4.58,4.58,0,0,1-1.7,1.58,3.49,3.49,0,0,1-2,.34,5,5,0,0,1-2-.73l-.65-.42-.61-.44a4.75,4.75,0,0,1-1.43-1.63,3.56,3.56,0,0,1-.4-1.95,4.55,4.55,0,0,1,.84-2.15,4.48,4.48,0,0,1,1.68-1.56,3.51,3.51,0,0,1,2-.36,4.94,4.94,0,0,1,2,.73l.64.41.63.45a5.07,5.07,0,0,1,1.43,1.62,3.47,3.47,0,0,1,.4,1.95A4.66,4.66,0,0,1,45,88Zm-1.13-.77a2.31,2.31,0,0,0,.4-1.85A3,3,0,0,0,43,83.68c-.14-.11-.32-.25-.54-.4l-.57-.36a3.09,3.09,0,0,0-2.1-.57,2.3,2.3,0,0,0-1.57,1.06,2.33,2.33,0,0,0-.41,1.86A3,3,0,0,0,39.09,87c.14.11.32.24.55.39s.41.27.57.36a3,3,0,0,0,2.09.58A2.36,2.36,0,0,0,43.88,87.27Z"/><path class="cls-2" d="M48.67,82.49a.4.4,0,0,1-.27.17.41.41,0,0,1-.3-.09L41.44,77.4a.4.4,0,0,1-.17-.27.43.43,0,0,1,.09-.3l.51-.66a.43.43,0,0,1,.28-.16.39.39,0,0,1,.3.09l.62.48A3.73,3.73,0,0,1,43,75.05a3.82,3.82,0,0,1,.8-1.66,3.66,3.66,0,0,1,1.61-1.24,3.14,3.14,0,0,1,1.85-.1,5.1,5.1,0,0,1,1.91,1l4,3.07a.43.43,0,0,1,.16.27.35.35,0,0,1-.08.29l-.54.71a.48.48,0,0,1-.27.16.45.45,0,0,1-.31-.09l-3.89-3a2.87,2.87,0,0,0-1.91-.71,2.19,2.19,0,0,0-1.64,1,2.32,2.32,0,0,0-.53,1.83,2.71,2.71,0,0,0,1.13,1.72l3.89,3a.35.35,0,0,1,.16.27.34.34,0,0,1-.09.3Z"/><path class="cls-2" d="M58.75,72.22a.25.25,0,0,1-.22.1.36.36,0,0,1-.24-.13l-1.62-2a.76.76,0,0,1-.17-.35.39.39,0,0,1,.11-.36l.8-.89a.25.25,0,0,1,.2-.09.32.32,0,0,1,.21.08.66.66,0,0,1,.17.24l1.2,2.32a1.09,1.09,0,0,1,.09.33.51.51,0,0,1-.13.33Z"/><path class="cls-2" d="M64.06,64.5a.42.42,0,0,1-.29.12.38.38,0,0,1-.29-.14l-8-8.42a.41.41,0,0,1-.13-.31.39.39,0,0,1,.13-.28l.65-.62a.46.46,0,0,1,.3-.14.36.36,0,0,1,.21,0l7.68,2.62-2.19-7.82a1.06,1.06,0,0,1,0-.22.38.38,0,0,1,.16-.29l.63-.6a.39.39,0,0,1,.3-.13.42.42,0,0,1,.3.14l8,8.43a.44.44,0,0,1,.12.29.48.48,0,0,1-.15.3l-.63.6a.44.44,0,0,1-.3.12.41.41,0,0,1-.28-.13l-6-6.35L66.07,58a.62.62,0,0,1,0,.35.72.72,0,0,1-.19.32l-.4.38a.78.78,0,0,1-.33.18,1,1,0,0,1-.36,0L58.69,57l6,6.35a.44.44,0,0,1,.12.3.4.4,0,0,1-.14.28Z"/><path class="cls-2" d="M75.91,54a3.53,3.53,0,0,1-1.48.75,3,3,0,0,1-1.51,0A2.27,2.27,0,0,1,71.7,54a2.33,2.33,0,0,1-.47-2.15,5.82,5.82,0,0,1,1.4-2.39l1.81-2-.32-.4a1.78,1.78,0,0,0-1.23-.72,2.18,2.18,0,0,0-1.53.63,2.41,2.41,0,0,0-.8,1.07,1.75,1.75,0,0,0,0,1.06.38.38,0,0,1-.12.45l-.61.51a.38.38,0,0,1-.3.09.46.46,0,0,1-.26-.15,1.55,1.55,0,0,1-.25-.64,2.74,2.74,0,0,1,0-1,3.65,3.65,0,0,1,.44-1.18A4.4,4.4,0,0,1,70.55,46a5.25,5.25,0,0,1,1.56-.93,2.87,2.87,0,0,1,1.36-.15,2.81,2.81,0,0,1,1.13.42,4.35,4.35,0,0,1,.9.81l3.65,4.45a.38.38,0,0,1,.1.3.39.39,0,0,1-.16.28l-.63.52a.4.4,0,0,1-.3.1.42.42,0,0,1-.27-.16L77.4,51a3.24,3.24,0,0,1-.51,1.9A4.31,4.31,0,0,1,75.91,54Zm-.56-1.27a3,3,0,0,0,.84-1.08,2.23,2.23,0,0,0,.12-1.36,3.53,3.53,0,0,0-.78-1.49l-.32-.39L73.81,50a4.84,4.84,0,0,0-1.1,1.67,1.24,1.24,0,0,0,.18,1.22,1.21,1.21,0,0,0,.75.46,1.83,1.83,0,0,0,.89-.1A2.69,2.69,0,0,0,75.35,52.73Z"/><path class="cls-2" d="M84,47.69a5,5,0,0,1-1.52.81,4,4,0,0,1-1.29.19,3.16,3.16,0,0,1-1-.18,1.31,1.31,0,0,1-.53-.32.32.32,0,0,1-.08-.32.51.51,0,0,1,.17-.25l.63-.46a.56.56,0,0,1,.15-.08.7.7,0,0,1,.23,0,5.06,5.06,0,0,0,.71.1,2.11,2.11,0,0,0,.81-.08,3.06,3.06,0,0,0,.93-.48,3,3,0,0,0,1-1.16,1.14,1.14,0,0,0-.12-1.18,1,1,0,0,0-.62-.43,2,2,0,0,0-1,.12,13.47,13.47,0,0,0-1.62.63,6.39,6.39,0,0,1-1.73.5A2.43,2.43,0,0,1,78,44.94a2.5,2.5,0,0,1-.89-.77,2.35,2.35,0,0,1-.43-1.26A3,3,0,0,1,77,41.42,4.19,4.19,0,0,1,78.28,40a5,5,0,0,1,1.42-.75,3.63,3.63,0,0,1,1.21-.17,2.83,2.83,0,0,1,.92.18,1.34,1.34,0,0,1,.53.32.33.33,0,0,1,.08.3.38.38,0,0,1-.16.26l-.6.44a.34.34,0,0,1-.2.08h-.19a3.65,3.65,0,0,0-.61-.13,1.87,1.87,0,0,0-.73.06,2.61,2.61,0,0,0-.9.47,2,2,0,0,0-.86,1.09,1.17,1.17,0,0,0,.2,1,1,1,0,0,0,.51.37,1.65,1.65,0,0,0,.89-.05,12.71,12.71,0,0,0,1.59-.59,6.12,6.12,0,0,1,1.86-.59,2.45,2.45,0,0,1,1.31.17,2.41,2.41,0,0,1,.93.79,2.33,2.33,0,0,1,.46,1.37,2.88,2.88,0,0,1-.46,1.55A5.1,5.1,0,0,1,84,47.69Z"/><path class="cls-2" d="M91.33,42.65a5.23,5.23,0,0,1-1.56.72,4.14,4.14,0,0,1-1.3.13,2.93,2.93,0,0,1-1-.24,1.53,1.53,0,0,1-.51-.34.34.34,0,0,1-.06-.33.45.45,0,0,1,.18-.24l.66-.43a.48.48,0,0,1,.15-.07.91.91,0,0,1,.23,0l.7.14a2.51,2.51,0,0,0,.81,0,3.09,3.09,0,0,0,1-.44,2.86,2.86,0,0,0,1.07-1.1,1.12,1.12,0,0,0-.07-1.18,1,1,0,0,0-.59-.46,2.11,2.11,0,0,0-1,.06,13.38,13.38,0,0,0-1.66.54,6.35,6.35,0,0,1-1.75.41,2.25,2.25,0,0,1-1.22-.25,2.55,2.55,0,0,1-.85-.82,2.34,2.34,0,0,1-.36-1.28A2.93,2.93,0,0,1,84.66,36,4,4,0,0,1,86,34.65,4.75,4.75,0,0,1,87.48,34a3.88,3.88,0,0,1,1.23-.11,3,3,0,0,1,.91.23,1.31,1.31,0,0,1,.5.35.32.32,0,0,1,.07.31A.41.41,0,0,1,90,35l-.63.4a.35.35,0,0,1-.2.07l-.19,0a3.62,3.62,0,0,0-.61-.16,1.82,1.82,0,0,0-.73,0,2.61,2.61,0,0,0-.92.42,2.06,2.06,0,0,0-.92,1,1.21,1.21,0,0,0,.14,1,1,1,0,0,0,.5.4,1.53,1.53,0,0,0,.88,0A11.67,11.67,0,0,0,89,37.7a6.08,6.08,0,0,1,1.89-.48,2.49,2.49,0,0,1,1.3.23,2.46,2.46,0,0,1,.88.85,2.33,2.33,0,0,1,.38,1.38,2.85,2.85,0,0,1-.53,1.53A5.23,5.23,0,0,1,91.33,42.65Z"/><path class="cls-2" d="M98.37,38.33a3.69,3.69,0,0,1-1.59.5,3.09,3.09,0,0,1-1.49-.26,2.26,2.26,0,0,1-1.07-1,2.32,2.32,0,0,1-.1-2.2,5.73,5.73,0,0,1,1.78-2.12L98,31.65l-.25-.44a1.82,1.82,0,0,0-1.09-.92,2.26,2.26,0,0,0-1.62.37,2.38,2.38,0,0,0-1,.92,1.72,1.72,0,0,0-.19,1.05.38.38,0,0,1-.19.42l-.7.39a.36.36,0,0,1-.31.05.41.41,0,0,1-.22-.19,1.48,1.48,0,0,1-.15-.67,2.81,2.81,0,0,1,.17-1,3.56,3.56,0,0,1,.64-1.09,4.61,4.61,0,0,1,1.28-1,5.11,5.11,0,0,1,1.7-.65,2.9,2.9,0,0,1,1.36.07,2.8,2.8,0,0,1,1,.61,3.78,3.78,0,0,1,.76.94l2.85,5a.39.39,0,0,1,.05.31.41.41,0,0,1-.2.25l-.71.41a.42.42,0,0,1-.32.05.44.44,0,0,1-.24-.21l-.38-.66a3.11,3.11,0,0,1-.22.86,3.25,3.25,0,0,1-.6.93A4.39,4.39,0,0,1,98.37,38.33ZM98,37a2.89,2.89,0,0,0,1-.93,2.26,2.26,0,0,0,.35-1.32,3.52,3.52,0,0,0-.52-1.6l-.25-.44L97,34a4.94,4.94,0,0,0-1.36,1.46,1.25,1.25,0,0,0,0,1.24,1.23,1.23,0,0,0,.67.57,1.77,1.77,0,0,0,.89.05A2.64,2.64,0,0,0,98,37Z"/><path class="cls-2" d="M107.86,33.25a4.63,4.63,0,0,1-2.17.52,3.4,3.4,0,0,1-1.89-.63,4.75,4.75,0,0,1-1.45-1.73q-.13-.22-.33-.63c-.13-.26-.23-.48-.3-.64a4.77,4.77,0,0,1-.5-2.21,3.43,3.43,0,0,1,.64-1.88,4.6,4.6,0,0,1,1.74-1.41,5,5,0,0,1,1.71-.53,3.77,3.77,0,0,1,1.41.11,3.24,3.24,0,0,1,1.08.55,2.58,2.58,0,0,1,.66.76.32.32,0,0,1,0,.3.45.45,0,0,1-.22.23l-.77.38a.34.34,0,0,1-.27,0,.75.75,0,0,1-.28-.16,2.36,2.36,0,0,0-1.33-.72,2.48,2.48,0,0,0-1.38.29A2.35,2.35,0,0,0,103,27.25a3,3,0,0,0,.29,2.22c.18.38.36.76.55,1.11a3,3,0,0,0,1.59,1.59,2.36,2.36,0,0,0,3.15-2.6.76.76,0,0,1,0-.33.4.4,0,0,1,.21-.19l.76-.38a.51.51,0,0,1,.32,0,.31.31,0,0,1,.22.21,2.57,2.57,0,0,1,.2.76,2.9,2.9,0,0,1-.06.91,3.18,3.18,0,0,1-.37,1,4.37,4.37,0,0,1-.78.94A5.6,5.6,0,0,1,107.86,33.25Z"/><path class="cls-2" d="M113.48,30.36a.39.39,0,0,1-.53-.22l-4.57-10.89a.37.37,0,0,1,0-.31.41.41,0,0,1,.23-.22l.82-.34a.36.36,0,0,1,.32,0,.4.4,0,0,1,.21.23l1.61,3.82a3.64,3.64,0,0,1,.7-1.35,3.7,3.7,0,0,1,1.48-1,3.62,3.62,0,0,1,2-.29,3.24,3.24,0,0,1,1.68.82,4.75,4.75,0,0,1,1.19,1.76L120.55,27a.42.42,0,0,1,0,.31.39.39,0,0,1-.23.22l-.82.35a.44.44,0,0,1-.32,0,.4.4,0,0,1-.22-.22l-1.91-4.54a2.87,2.87,0,0,0-1.31-1.57,2.21,2.21,0,0,0-1.91.05,2.36,2.36,0,0,0-1.37,1.33,2.68,2.68,0,0,0,.14,2.06l1.9,4.54a.42.42,0,0,1,0,.31.4.4,0,0,1-.24.22Z"/><path class="cls-2" d="M126.27,25.52a3.46,3.46,0,0,1-2,.15,3.2,3.2,0,0,1-1.6-1,5,5,0,0,1-1.06-1.83L120,18.15a.37.37,0,0,1,0-.31.36.36,0,0,1,.24-.21l.84-.29a.39.39,0,0,1,.52.25l1.6,4.66c.58,1.67,1.59,2.25,3,1.75a2.3,2.3,0,0,0,1.44-1.24,2.71,2.71,0,0,0,0-2.06l-1.61-4.65a.44.44,0,0,1,0-.32.37.37,0,0,1,.24-.2l.82-.29a.38.38,0,0,1,.52.26l2.75,8a.41.41,0,0,1,0,.31.36.36,0,0,1-.25.21l-.77.27a.39.39,0,0,1-.52-.25l-.25-.74a3.85,3.85,0,0,1-.78,1.32A3.9,3.9,0,0,1,126.27,25.52Z"/><path class="cls-2" d="M136,22.45a5.21,5.21,0,0,1-1.71.22,3.79,3.79,0,0,1-1.27-.27,3,3,0,0,1-.84-.51,1.42,1.42,0,0,1-.38-.48.31.31,0,0,1,0-.32.41.41,0,0,1,.24-.18l.76-.21a.36.36,0,0,1,.17,0,.51.51,0,0,1,.2.1,6.14,6.14,0,0,0,.63.34,2.35,2.35,0,0,0,.79.2,2.89,2.89,0,0,0,1-.12,3,3,0,0,0,1.35-.74,1.13,1.13,0,0,0,.29-1.14,1,1,0,0,0-.43-.62,1.93,1.93,0,0,0-.95-.23,14.75,14.75,0,0,0-1.73,0,6,6,0,0,1-1.8-.14,2.26,2.26,0,0,1-1.09-.6,2.43,2.43,0,0,1-.53-2.36,2.91,2.91,0,0,1,.84-1.28,4.1,4.1,0,0,1,1.72-.88A4.65,4.65,0,0,1,135,13a3.43,3.43,0,0,1,1.2.26,2.82,2.82,0,0,1,.8.49,1.33,1.33,0,0,1,.38.48.34.34,0,0,1,0,.31.38.38,0,0,1-.24.19l-.72.2a.31.31,0,0,1-.21,0l-.18-.08a4.25,4.25,0,0,0-.52-.34,2,2,0,0,0-.71-.2,3,3,0,0,0-1,.13,2,2,0,0,0-1.19.72,1.14,1.14,0,0,0-.17,1,.93.93,0,0,0,.35.53,1.52,1.52,0,0,0,.85.26,11.45,11.45,0,0,0,1.7,0,6.11,6.11,0,0,1,1.94.1,2.42,2.42,0,0,1,1.17.62,2.34,2.34,0,0,1,.6,1.07,2.41,2.41,0,0,1,0,1.43,3,3,0,0,1-1,1.3A5.36,5.36,0,0,1,136,22.45Z"/><path class="cls-2" d="M145.14,20.19a3.87,3.87,0,0,1-3.09-.48A4.69,4.69,0,0,1,140.23,17c0-.15-.09-.34-.14-.58s-.09-.43-.11-.58a5.11,5.11,0,0,1,.1-2.29,3.74,3.74,0,0,1,1.07-1.74,4.16,4.16,0,0,1,1.95-.95,4.22,4.22,0,0,1,2.33.07,3.65,3.65,0,0,1,1.71,1.29,5.85,5.85,0,0,1,1,2.29l.07.3a.38.38,0,0,1,0,.32.47.47,0,0,1-.27.17l-6,1.31,0,.06,0,.09a3.67,3.67,0,0,0,.6,1.26,2.56,2.56,0,0,0,1,.83,2.13,2.13,0,0,0,1.33.11,2.49,2.49,0,0,0,1-.42,2.93,2.93,0,0,0,.59-.57,2.6,2.6,0,0,0,.27-.44.92.92,0,0,1,.18-.32.58.58,0,0,1,.27-.1l.83-.18a.41.41,0,0,1,.31,0,.29.29,0,0,1,.15.25,1.41,1.41,0,0,1-.13.69,3.38,3.38,0,0,1-.59.9,4.17,4.17,0,0,1-1.05.86A5.06,5.06,0,0,1,145.14,20.19Zm-3.53-4.83,4.76-1v-.05a3.24,3.24,0,0,0-.59-1.33,2.31,2.31,0,0,0-1-.78,2.33,2.33,0,0,0-1.37-.08,2.39,2.39,0,0,0-1.2.63,2.32,2.32,0,0,0-.59,1.14,3.39,3.39,0,0,0,0,1.45Z"/><path class="cls-2" d="M154.61,18.24a3.09,3.09,0,0,1-1.66-.12,2.22,2.22,0,0,1-1.07-.92,4.58,4.58,0,0,1-.55-1.59L150.57,11l-1.37.22a.41.41,0,0,1-.31-.06.42.42,0,0,1-.16-.28l-.1-.59a.37.37,0,0,1,.07-.31A.38.38,0,0,1,149,9.8l1.36-.23-.48-2.93a.38.38,0,0,1,.07-.31.41.41,0,0,1,.27-.16L151,6a.41.41,0,0,1,.31.06.42.42,0,0,1,.16.27L152,9.3l2.17-.36a.41.41,0,0,1,.31.07.38.38,0,0,1,.16.27l.1.6a.35.35,0,0,1-.07.3.39.39,0,0,1-.27.17l-2.17.36.74,4.5a2.62,2.62,0,0,0,.5,1.26,1.09,1.09,0,0,0,1.08.3l1.07-.17a.39.39,0,0,1,.3.06.44.44,0,0,1,.17.27l.1.64a.35.35,0,0,1-.07.3.39.39,0,0,1-.27.17Z"/><path class="cls-2" d="M161.38,17.32a3.09,3.09,0,0,1-1.65-.18,2.15,2.15,0,0,1-1-1,4.18,4.18,0,0,1-.48-1.61l-.58-4.66-1.37.17A.42.42,0,0,1,156,10a.45.45,0,0,1-.15-.28l-.07-.6a.4.4,0,0,1,.35-.45l1.38-.17-.36-2.95a.38.38,0,0,1,.08-.3.37.37,0,0,1,.28-.15L158.3,5a.44.44,0,0,1,.3.08.37.37,0,0,1,.15.28l.36,2.95L161.3,8a.38.38,0,0,1,.31.08.45.45,0,0,1,.15.28l.07.6a.41.41,0,0,1-.08.3.37.37,0,0,1-.28.15l-2.18.27.55,4.53a2.71,2.71,0,0,0,.44,1.28,1.1,1.1,0,0,0,1.07.35l1.07-.13a.38.38,0,0,1,.31.08.36.36,0,0,1,.15.27l.08.64a.38.38,0,0,1-.08.3.37.37,0,0,1-.28.15Z"/><path class="cls-2" d="M167.76,16.91a5.19,5.19,0,0,1-1.72-.12,3.91,3.91,0,0,1-1.2-.52,2.69,2.69,0,0,1-.71-.66,1.47,1.47,0,0,1-.29-.55.32.32,0,0,1,.11-.31.48.48,0,0,1,.27-.13l.78-.06a.42.42,0,0,1,.17,0,.54.54,0,0,1,.18.14l.55.46a2.25,2.25,0,0,0,.73.35,2.67,2.67,0,0,0,1.05.08,2.87,2.87,0,0,0,1.47-.45,1.13,1.13,0,0,0,.51-1.06,1.05,1.05,0,0,0-.3-.7,2.06,2.06,0,0,0-.88-.41,15.28,15.28,0,0,0-1.71-.32,6.12,6.12,0,0,1-1.73-.49,2.25,2.25,0,0,1-.95-.8,2.42,2.42,0,0,1-.35-1.12A2.36,2.36,0,0,1,164,9a2.93,2.93,0,0,1,1.07-1.09A4.16,4.16,0,0,1,167,7.34a4.72,4.72,0,0,1,1.6.12,3.51,3.51,0,0,1,1.12.49,2.88,2.88,0,0,1,.69.64,1.21,1.21,0,0,1,.27.55.33.33,0,0,1-.08.3.39.39,0,0,1-.28.13l-.74.06a.36.36,0,0,1-.21,0l-.16-.11a3.71,3.71,0,0,0-.45-.43,1.9,1.9,0,0,0-.65-.34,2.84,2.84,0,0,0-1-.07,2,2,0,0,0-1.3.47,1.16,1.16,0,0,0-.38,1,1.06,1.06,0,0,0,.24.59,1.66,1.66,0,0,0,.78.42,11.6,11.6,0,0,0,1.67.34,6.13,6.13,0,0,1,1.89.49,2.22,2.22,0,0,1,1.39,2,2.28,2.28,0,0,1-.33,1.39,2.89,2.89,0,0,1-1.2,1.08A5.19,5.19,0,0,1,167.76,16.91Z"/><circle class="cls-3" cx="180" cy="179.5" r="174.58"/></g></svg>